<svg width="92" height="94" viewBox="0 0 92 94" fill="none" xmlns="http://www.w3.org/2000/svg">
<path d="M86.6094 49.8944V42.8348C86.6094 35.507 83.7479 28.542 78.3342 22.6929C73.5288 17.5009 66.8847 13.5191 59.4665 11.3509C59.26 7.8201 55.717 5 51.3906 5H40.6094C36.283 5 32.74 7.8201 32.5335 11.3509C25.1153 13.5191 18.4712 17.5009 13.6658 22.6929C8.25215 28.542 5.39062 35.507 5.39062 42.8348V49.8944C2.25346 50.8131 0 53.2869 0 56.1883C0 59.8699 3.62735 62.865 8.08594 62.865H83.9141C88.3726 62.865 92 59.8699 92 56.1883C92 53.2869 89.7465 50.8131 86.6094 49.8944ZM10.7812 42.8348C10.7812 34.8092 14.9331 27.2961 21.7422 21.9359V29.4814C21.7422 30.7105 22.949 31.7069 24.4375 31.7069C25.926 31.7069 27.1328 30.7105 27.1328 29.4814V18.445C28.8312 17.5497 30.6326 16.7687 32.5234 16.1187V33.9325C32.5234 35.1616 33.7302 36.1581 35.2188 36.1581C36.7073 36.1581 37.9141 35.1616 37.9141 33.9325V13.002C37.9142 12.9959 37.9141 12.9898 37.9141 12.9837V11.6767C37.9141 10.4496 39.1232 9.45116 40.6094 9.45116H51.3906C52.8768 9.45116 54.0859 10.4496 54.0859 11.6767V12.9831C54.0859 12.9895 54.0858 12.9958 54.0859 13.0021V33.9325C54.0859 35.1616 55.2927 36.1581 56.7812 36.1581C58.2698 36.1581 59.4766 35.1616 59.4766 33.9325V16.1187C61.3674 16.7689 63.1688 17.5499 64.8672 18.445V29.4814C64.8672 30.7105 66.074 31.7069 67.5625 31.7069C69.051 31.7069 70.2578 30.7105 70.2578 29.4814V21.9359C77.0669 27.2961 81.2188 34.8092 81.2188 42.8348V49.5116H10.7812V42.8348ZM83.9141 58.4139H8.08594C6.59974 58.4139 5.39062 57.4155 5.39062 56.1883C5.39062 54.9611 6.59974 53.9627 8.08594 53.9627H83.9141C85.4003 53.9627 86.6094 54.9611 86.6094 56.1883C86.6094 57.4155 85.4003 58.4139 83.9141 58.4139Z" fill="#346CA4"/>
</svg>
