<svg width="20" height="14" viewBox="0 0 20 14" fill="none" xmlns="http://www.w3.org/2000/svg">
<path d="M18.0173 0H2.30919C1.52182 0 0.879395 0.622786 0.879395 1.38608V12.1101C0.879395 12.8734 1.52182 13.4962 2.30919 13.4962H18.0173C18.8047 13.4962 19.4471 12.8734 19.4471 12.1101V1.38608C19.4471 0.622786 18.8047 0 18.0173 0ZM17.8097 1.02532L10.2612 7.28355L2.71266 1.02532H17.8097ZM18.3895 12.1101C18.3895 12.3076 18.221 12.4709 18.0173 12.4709H2.30919C2.10549 12.4709 1.93705 12.3076 1.93705 12.1101V1.73165L9.91647 8.34684C9.92039 8.35064 9.92823 8.35444 9.93214 8.35824C9.93606 8.36203 9.94389 8.36583 9.94781 8.36963C9.95956 8.37722 9.9674 8.38482 9.97915 8.38862C9.98307 8.39241 9.98698 8.39241 9.9909 8.39621C10.0066 8.4038 10.0222 8.4114 10.0379 8.41899C10.0418 8.41899 10.0457 8.42279 10.0497 8.42279C10.0614 8.42659 10.0732 8.43419 10.0888 8.43798C10.0927 8.43798 10.1006 8.44178 10.1045 8.44178C10.1163 8.44558 10.128 8.44937 10.1398 8.44937C10.1437 8.44937 10.1515 8.45317 10.1554 8.45317C10.1672 8.45697 10.1828 8.45697 10.1946 8.46077C10.1985 8.46077 10.2024 8.46077 10.2063 8.46077C10.222 8.46077 10.2416 8.46457 10.2573 8.46457C10.2729 8.46457 10.2925 8.46457 10.3082 8.46077C10.3121 8.46077 10.316 8.46077 10.3199 8.46077C10.3317 8.46077 10.3474 8.45697 10.3591 8.45317C10.363 8.45317 10.3709 8.44937 10.3748 8.44937C10.3865 8.44558 10.3983 8.44178 10.41 8.44178C10.414 8.44178 10.4218 8.43798 10.4257 8.43798C10.4375 8.43419 10.4492 8.43039 10.4649 8.42279C10.4688 8.42279 10.4727 8.41899 10.4766 8.41899C10.4923 8.4114 10.508 8.4038 10.5236 8.39621C10.5276 8.39241 10.5315 8.39241 10.5354 8.38862C10.5471 8.38102 10.555 8.37722 10.5667 8.36963C10.5707 8.36583 10.5785 8.36203 10.5824 8.35824C10.5863 8.35444 10.5942 8.35064 10.5981 8.34684L18.3895 1.89494V12.1101Z" fill="#4283C5"/>
</svg>
