<svg width="20" height="23" viewBox="0 0 20 23" fill="none" xmlns="http://www.w3.org/2000/svg">
<path d="M10.1652 0C8.94198 0.000491892 7.73089 0.237638 6.60146 0.697826C5.47203 1.15801 4.44649 1.83218 3.58372 2.68164C2.72095 3.53109 2.03793 4.5391 1.57386 5.64781C1.1098 6.75652 0.873826 7.94409 0.879494 9.14237C0.879494 15.4596 7.53172 21.2517 9.57825 22.785C9.75005 22.924 9.9659 23 10.1887 23C10.4115 23 10.6273 22.924 10.7991 22.785C12.8496 21.2057 19.447 15.4596 19.447 9.14237C19.4527 7.94442 19.2169 6.75715 18.753 5.64869C18.2892 4.54024 17.6065 3.5324 16.7442 2.68299C15.8818 1.83359 14.8567 1.15934 13.7278 0.698929C12.5988 0.238515 11.3881 0.000996378 10.1652 0ZM10.1652 12.922C9.39128 12.922 8.63473 12.6972 7.99123 12.276C7.34773 11.8548 6.84618 11.2561 6.55001 10.5556C6.25384 9.8552 6.17634 9.08445 6.32733 8.34087C6.47832 7.59729 6.851 6.91426 7.39826 6.37817C7.94551 5.84207 8.64275 5.47699 9.40181 5.32908C10.1609 5.18117 10.9477 5.25709 11.6627 5.54722C12.3777 5.83735 12.9888 6.32867 13.4188 6.95905C13.8488 7.58943 14.0783 8.33055 14.0783 9.08871C14.0783 10.1054 13.666 11.0804 12.9322 11.7992C12.1983 12.5181 11.203 12.922 10.1652 12.922Z" fill="#4283C5"/>
</svg>
