<svg width="23" height="22" viewBox="0 0 23 22" fill="none" xmlns="http://www.w3.org/2000/svg">
<path d="M17.6906 14.1802C16.9682 13.4888 16.0663 13.4888 15.3485 14.1802C14.8009 14.7066 14.2533 15.2329 13.715 15.7682C13.5677 15.9154 13.4435 15.9467 13.264 15.8485C12.9097 15.6612 12.5324 15.5095 12.1919 15.3043C10.6044 14.3363 9.2746 13.0918 8.09664 11.6911C7.51226 10.9952 6.9923 10.2503 6.62879 9.41169C6.55517 9.24218 6.56897 9.13066 6.71161 8.99238C7.25918 8.47939 7.79295 7.95303 8.33131 7.42666C9.08134 6.6951 9.08135 5.83864 8.32671 5.10262C7.89878 4.68331 7.47085 4.27293 7.04292 3.85362C6.60118 3.42539 6.16405 2.9927 5.71771 2.56893C4.99528 1.88644 4.09341 1.88644 3.37558 2.57339C2.82341 3.09976 2.29425 3.6395 1.73288 4.15695C1.21292 4.63425 0.950637 5.2186 0.89542 5.90109C0.807993 7.01181 1.08868 8.06009 1.4844 9.08159C2.29425 11.196 3.52743 13.0739 5.02289 14.7958C7.04292 17.1243 9.45406 18.9666 12.2747 20.2959C13.5447 20.8936 14.8607 21.3531 16.2918 21.4289C17.2765 21.4824 18.1323 21.2415 18.8179 20.4966C19.2873 19.9881 19.8165 19.5242 20.3134 19.0379C21.0496 18.3153 21.0542 17.441 20.3226 16.7273C19.4483 15.8753 18.5695 15.0277 17.6906 14.1802Z" fill="#4283C5"/>
<path d="M16.8117 10.6254L18.5097 10.3443C18.2428 8.83216 17.5065 7.46272 16.3884 6.3743C15.2058 5.2279 13.7103 4.50526 12.063 4.28223L11.8237 5.93715C13.0983 6.11112 14.2579 6.66871 15.1736 7.55639C16.0387 8.39501 16.6047 9.45666 16.8117 10.6254Z" fill="#4283C5"/>
<path d="M19.4668 3.47045C17.5066 1.57018 15.0264 0.37024 12.2886 0L12.0493 1.65493C14.4144 1.9761 16.5587 3.01545 18.252 4.65254C19.8579 6.20933 20.9116 8.17651 21.2936 10.34L22.9915 10.0589C22.5451 7.55201 21.3258 5.27704 19.4668 3.47045Z" fill="#4283C5"/>
</svg>
