<svg width="92" height="100" viewBox="0 0 92 100" fill="none" xmlns="http://www.w3.org/2000/svg">
<path d="M27.6716 50.7116C27.3091 50.3628 26.764 50.2584 26.2905 50.4473C25.8169 50.636 25.5082 51.0808 25.5082 51.574V73.2179C25.5082 73.8915 26.0755 74.4374 26.7755 74.4374H49.2663C49.779 74.4374 50.241 74.1403 50.4373 73.6846C50.6334 73.2289 50.5249 72.7043 50.1627 72.3555L27.6716 50.7116ZM28.0428 71.9983V54.5183L46.2068 71.9983H28.0428Z" fill="#346CA4"/>
<path d="M91.6288 7.51301L85.0395 1.1719C84.5445 0.6956 83.7422 0.695822 83.2473 1.1719L45.1653 37.8194C45.0434 37.9367 44.9478 38.0766 44.884 38.2305L40.7097 48.317L23.9125 32.1524L26.9269 29.2518C27.4218 28.7755 27.4218 28.0034 26.9269 27.5271C26.4319 27.0508 25.6296 27.0508 25.1347 27.5271L22.1203 30.4277L17.064 25.5618V1.21957C17.064 0.545925 16.4967 0 15.7967 0H1.26731C0.567294 0 0 0.545925 0 1.21957V98.3401C0 99.0138 0.567294 99.5597 1.26731 99.5597H15.7967C16.4967 99.5597 17.064 99.0138 17.064 98.3401V85.0026H75.2471L78.7863 88.4086C79.0338 88.6467 79.358 88.7658 79.6824 88.7658C80.0069 88.7658 80.3311 88.6467 80.5785 88.4086C81.0735 87.9323 81.0735 87.1602 80.5785 86.6839L42.6383 50.1728L53.1196 46.1557C53.2795 46.0943 53.4249 46.0023 53.5468 45.8852L91.6288 9.23771C91.8664 9.00909 92 8.69888 92 8.37536C92 8.05184 91.8664 7.74162 91.6288 7.51301ZM14.5291 97.1205H2.53462V94.9504H4.7114C5.41141 94.9504 5.97871 94.4044 5.97871 93.7308C5.97871 93.0572 5.41141 92.5112 4.7114 92.5112H2.53462V88.6716H4.7114C5.41141 88.6716 5.97871 88.1256 5.97871 87.452C5.97871 86.7784 5.41141 86.2324 4.7114 86.2324H2.53462V82.393H4.7114C5.41141 82.393 5.97871 81.8471 5.97871 81.1734C5.97871 80.4998 5.41141 79.9538 4.7114 79.9538H2.53462V76.1142H4.7114C5.41141 76.1142 5.97871 75.5683 5.97871 74.8946C5.97871 74.221 5.41141 73.675 4.7114 73.675H2.53462V69.8356H4.7114C5.41141 69.8356 5.97871 69.2897 5.97871 68.616C5.97871 67.9424 5.41141 67.3965 4.7114 67.3965H2.53462V63.5568H4.7114C5.41141 63.5568 5.97871 63.0109 5.97871 62.3372C5.97871 61.6636 5.41141 61.1177 4.7114 61.1177H2.53462V57.2782H4.7114C5.41141 57.2782 5.97871 56.7323 5.97871 56.0586C5.97871 55.385 5.41141 54.8391 4.7114 54.8391H2.53462V50.9994H4.7114C5.41141 50.9994 5.97871 50.4535 5.97871 49.7798C5.97871 49.1062 5.41141 48.5603 4.7114 48.5603H2.53462V44.7208H4.7114C5.41141 44.7208 5.97871 44.1749 5.97871 43.5013C5.97871 42.8276 5.41141 42.2817 4.7114 42.2817H2.53462V38.442H4.7114C5.41141 38.442 5.97871 37.8961 5.97871 37.2225C5.97871 36.5488 5.41141 36.0029 4.7114 36.0029H2.53462V32.1635H4.7114C5.41141 32.1635 5.97871 31.6175 5.97871 30.9439C5.97871 30.2702 5.41141 29.7243 4.7114 29.7243H2.53462V25.8847H4.7114C5.41141 25.8847 5.97871 25.3387 5.97871 24.6651C5.97871 23.9914 5.41141 23.4455 4.7114 23.4455H2.53462V19.6058H4.7114C5.41141 19.6058 5.97871 19.0599 5.97871 18.3863C5.97871 17.7126 5.41141 17.1667 4.7114 17.1667H2.53462V13.3273H4.7114C5.41141 13.3273 5.97871 12.7813 5.97871 12.1077C5.97871 11.434 5.41141 10.8881 4.7114 10.8881H2.53462V7.04846H4.7114C5.41141 7.04846 5.97871 6.50254 5.97871 5.82889C5.97871 5.15524 5.41141 4.60932 4.7114 4.60932H2.53462V2.43915H14.5294V97.1205H14.5291ZM17.0637 82.5635V29.011L23.2312 34.9461L19.6253 38.4161C19.1304 38.8924 19.1304 39.6645 19.6253 40.1408C19.8728 40.3789 20.197 40.498 20.5214 40.498C20.8459 40.498 21.1701 40.3789 21.4175 40.1408L25.0234 36.6708L27.8446 39.3858L24.2388 42.8558C23.7439 43.3321 23.7439 44.1042 24.2388 44.5805C24.4863 44.8186 24.8105 44.9377 25.1349 44.9377C25.4593 44.9377 25.7835 44.8186 26.031 44.5805L29.6368 41.1105L32.4581 43.8255L28.8523 47.2955C28.3573 47.7718 28.3573 48.5439 28.8523 49.0202C29.0997 49.2583 29.4239 49.3774 29.7484 49.3774C30.0728 49.3774 30.397 49.2583 30.6445 49.0202L34.2503 45.5501L37.0716 48.2651L33.4657 51.7352C32.9708 52.2114 32.9708 52.9836 33.4657 53.4599C33.7132 53.698 34.0374 53.8171 34.3618 53.8171C34.6863 53.8171 35.0105 53.698 35.2579 53.4599L38.8638 49.9898L41.685 52.7048L38.0792 56.1748C37.5843 56.6511 37.5843 57.4232 38.0792 57.8995C38.3267 58.1377 38.6509 58.2568 38.9753 58.2568C39.2997 58.2568 39.6239 58.1377 39.8714 57.8995L43.4773 54.4295L46.2985 57.1445L42.6927 60.6145C42.1977 61.0908 42.1977 61.8629 42.6927 62.3392C42.9401 62.5774 43.2643 62.6964 43.5888 62.6964C43.9132 62.6964 44.2374 62.5774 44.4849 62.3392L48.0907 58.8692L50.912 61.5842L47.3061 65.0542C46.8112 65.5305 46.8112 66.3026 47.3061 66.7789C47.5536 67.0171 47.8778 67.1361 48.2022 67.1361C48.5267 67.1361 48.8509 67.0171 49.0983 66.7789L52.7042 63.3089L55.5254 66.0239L51.9196 69.4939C51.4247 69.9702 51.4247 70.7423 51.9196 71.2186C52.1671 71.4567 52.4913 71.5758 52.8157 71.5758C53.1399 71.5758 53.4643 71.4567 53.7118 71.2186L57.3177 67.7486L60.1389 70.4636L56.5331 73.9336C56.0381 74.4099 56.0381 75.182 56.5331 75.6583C56.7805 75.8964 57.1047 76.0155 57.4292 76.0155C57.7536 76.0155 58.0778 75.8964 58.3253 75.6583L61.9311 72.1883L64.7524 74.9033L61.1465 78.3733C60.6516 78.8496 60.6516 79.6217 61.1465 80.098C61.394 80.3361 61.7182 80.4552 62.0426 80.4552C62.3671 80.4552 62.6913 80.3361 62.9388 80.098L66.5446 76.628L72.712 82.5631H17.0637V82.5635ZM51.1484 41.8522L82.6604 11.5272L84.1627 12.9729L52.6507 43.2979L51.1484 41.8522ZM49.3562 40.1275L47.8538 38.6817L79.3658 8.35673L80.8682 9.80248L49.3562 40.1275ZM46.5266 40.8541L50.3933 44.5752L43.9674 47.038L46.5266 40.8541ZM85.9552 11.2482L81.1583 6.63204L84.1436 3.75917L88.9405 8.37536L85.9552 11.2482Z" fill="#346CA4"/>
<path d="M83.6742 89.663C83.1792 89.1867 82.3769 89.1867 81.8819 89.663C81.387 90.1393 81.387 90.9114 81.8819 91.3877L85.7922 95.1507C86.0396 95.3888 86.3638 95.5079 86.6883 95.5079C87.0125 95.5079 87.3369 95.3888 87.5844 95.1507C88.0793 94.6744 88.0793 93.9022 87.5844 93.4259L83.6742 89.663Z" fill="#346CA4"/>
<path d="M90.6799 96.4047C90.185 95.9287 89.3826 95.9289 88.8877 96.4054C88.393 96.8819 88.3932 97.654 88.8884 98.1301L88.9681 98.2066C89.2156 98.4445 89.5396 98.5636 89.864 98.5636C90.1884 98.5636 90.5129 98.4443 90.7606 98.2062C91.2553 97.7296 91.255 96.9575 90.7599 96.4815L90.6799 96.4047Z" fill="#346CA4"/>
<path d="M50.1444 6.4035C50.4689 6.4035 50.7933 6.28442 51.0408 6.04605L51.2428 5.85159C51.7376 5.37529 51.7375 4.60297 51.2426 4.12689C50.7477 3.65059 49.9451 3.65081 49.4504 4.12711L49.2483 4.3218C48.7536 4.7981 48.7536 5.5702 49.2486 6.0465C49.496 6.28442 49.8202 6.4035 50.1444 6.4035Z" fill="#346CA4"/>
<path d="M43.1384 13.1455C43.4626 13.1455 43.787 13.0264 44.0345 12.7883L47.945 9.02532C48.4399 8.54902 48.4399 7.77692 47.945 7.30062C47.45 6.82455 46.6477 6.82432 46.1528 7.30062L42.2423 11.0636C41.7474 11.5399 41.7474 12.312 42.2423 12.7883C42.4898 13.0264 42.8142 13.1455 43.1384 13.1455Z" fill="#346CA4"/>
<path d="M36.1323 19.8876C36.4565 19.8876 36.7809 19.7686 37.0284 19.5304L40.9388 15.7675C41.4338 15.2912 41.4338 14.5191 40.9388 14.0428C40.4439 13.5665 39.6416 13.5665 39.1466 14.0428L35.236 17.8057C34.741 18.282 34.741 19.0541 35.236 19.5304C35.4837 19.7686 35.8079 19.8876 36.1323 19.8876Z" fill="#346CA4"/>
<path d="M29.1262 26.6296C29.4506 26.6296 29.7748 26.5105 30.0223 26.2724L33.9325 22.5095C34.4275 22.0332 34.4275 21.2611 33.9325 20.7848C33.4376 20.3085 32.635 20.3087 32.1403 20.7848L28.2301 24.5479C27.7352 25.0242 27.7352 25.7963 28.2301 26.2726C28.4776 26.5108 28.802 26.6296 29.1262 26.6296Z" fill="#346CA4"/>
</svg>
