<svg width="60" height="62" viewBox="0 0 60 62" fill="none" xmlns="http://www.w3.org/2000/svg">
<rect width="60" height="61.2121" rx="8" fill="url(#paint0_linear_29_30793)"/>
<path d="M40.25 40.1743V38.0243H37.9917C37.8921 37.2367 37.7258 36.4699 37.4277 35.7632L39.3469 34.6552L38.2719 32.7926L36.3233 33.9178C35.8511 33.2971 35.3006 32.7468 34.68 32.2752L35.8045 30.3273L33.9439 29.2523L32.8353 31.1715C32.1286 30.8733 31.3618 30.707 30.5735 30.6074V28.3501H28.4235V30.6084C27.6351 30.708 26.869 30.8742 26.1617 31.1724L25.053 29.2532L23.1925 30.3282L24.317 32.2761C23.6963 32.7477 23.146 33.2988 22.6737 33.9187L20.7251 32.7935L19.6501 34.6561L21.5693 35.7642C21.2719 36.4708 21.1048 37.2369 21.0052 38.0253H18.75V40.1753H21.0083C21.1079 40.9629 21.2742 41.7297 21.5723 42.4364L19.6531 43.5444L20.7281 45.407L22.6767 44.2818C23.1489 44.9025 23.6994 45.4528 24.32 45.9244L23.1955 47.8723L25.0561 48.9473L26.1641 47.0281C26.8714 47.3263 27.6376 47.4926 28.4258 47.5922V49.8501H30.5758V47.5918C31.3642 47.4922 32.1303 47.3259 32.8376 47.0278L33.9456 48.947L35.8061 47.872L34.6817 45.9241C35.3023 45.4525 35.8527 44.9014 36.325 44.2815L38.2722 45.406L39.3472 43.5434L37.428 42.4354C37.7261 41.7287 37.8924 40.9626 37.992 40.1743H40.25V40.1743ZM29.5 45.5501C25.9432 45.5501 23.05 42.6569 23.05 39.1001C23.05 35.5433 25.9432 32.6501 29.5 32.6501C33.0568 32.6501 35.95 35.5433 35.95 39.1001C35.95 42.6562 33.0568 45.5501 29.5 45.5501Z" fill="white"/>
<path d="M16.5999 9C13.0438 9 10.1499 11.8939 10.1499 15.45C10.1499 19.0061 13.0438 21.9 16.5999 21.9C20.1567 21.9 23.0499 19.0068 23.0499 15.45C23.0499 11.8932 20.1567 9 16.5999 9ZM16.5999 19.75C14.2249 19.75 12.2999 17.825 12.2999 15.45C12.2999 13.075 14.2249 11.15 16.5999 11.15C18.9749 11.15 20.8999 13.075 20.8999 15.45C20.8999 17.825 18.9749 19.75 16.5999 19.75Z" fill="white"/>
<path d="M42.4 9C38.8431 9 35.95 11.8932 35.95 15.45C35.95 19.0068 38.8439 21.9 42.4 21.9C45.9568 21.9 48.85 19.0068 48.85 15.45C48.85 11.8932 45.9568 9 42.4 9ZM42.4 19.75C40.025 19.75 38.1 17.825 38.1 15.45C38.1 13.075 40.025 11.15 42.4 11.15C44.7749 11.15 46.7 13.075 46.7 15.45C46.7 17.825 44.7749 19.75 42.4 19.75Z" fill="white"/>
<path d="M16.6001 33.8151C17.1942 33.8151 17.6751 33.3342 17.6751 32.7401V26.1998H20.9001L21.4189 29.0528C22.0266 28.5634 22.6759 28.1233 23.3669 27.7492L23.015 25.815C22.8294 24.793 21.9392 24.0498 20.9001 24.0498H12.3001C11.2609 24.0498 10.3708 24.793 10.1852 25.815L8.03518 37.64C7.92121 38.2671 8.09111 38.9128 8.49961 39.4022C8.90811 39.8917 9.51297 40.1748 10.1501 40.1748H11.5239L12.3072 50.0204C12.3961 51.1376 13.3285 51.9998 14.4501 51.9998H18.7501C19.8717 51.9998 20.8047 51.1376 20.8936 50.0204L20.9925 48.7798C20.2508 48.1269 19.585 47.3931 19.0095 46.5883L18.7501 49.8498H14.4501L13.5098 38.0248H10.1501L12.3001 26.1998H15.5251V32.7401C15.5251 33.3342 16.006 33.8151 16.6001 33.8151Z" fill="white"/>
<path d="M50.965 37.64L48.8157 25.8157C48.6293 24.793 47.7392 24.0498 46.7001 24.0498H38.1001C37.061 24.0498 36.1708 24.793 35.9852 25.815L35.6333 27.7492C36.3242 28.1233 36.9734 28.5634 37.5812 29.0528L38.1001 26.1998H41.3251V32.7401C41.3251 33.3342 41.806 33.8151 42.4001 33.8151C42.9942 33.8151 43.4751 33.3342 43.4751 32.7401V26.1998H46.7001L48.8501 38.0248H45.4904L44.5501 49.8498H40.2501L39.9907 46.5883C39.4152 47.3938 38.7494 48.1269 38.0084 48.7791L38.1073 50.0204C38.1961 51.1376 39.1292 51.9998 40.2501 51.9998H44.5501C45.6717 51.9998 46.6048 51.1376 46.6936 50.0204L47.4762 40.1748H48.8501C49.488 40.1748 50.0921 39.8917 50.5006 39.4022C50.9091 38.9128 51.079 38.2678 50.965 37.64Z" fill="white"/>
<defs>
<linearGradient id="paint0_linear_29_30793" x1="54.1936" y1="10.1197" x2="99.3565" y2="92.2979" gradientUnits="userSpaceOnUse">
<stop stop-color="#569BE0"/>
<stop offset="1" stop-color="#346CA4"/>
</linearGradient>
</defs>
</svg>
