<svg width="128" height="128" viewBox="0 0 128 128" fill="none" xmlns="http://www.w3.org/2000/svg">
<g opacity="0.1">
<path d="M89.5 86.9481V81.8481H84.1432C83.9069 79.9798 83.5125 78.1608 82.8053 76.4845L87.3578 73.8563L84.8078 69.438L80.1855 72.1069C79.0653 70.6347 77.7596 69.3292 76.2874 68.2106L78.9548 63.5899L74.5415 61.0399L71.9116 65.5925C70.2353 64.8852 68.4163 64.4908 66.5464 64.2545V58.8999H61.4464V64.2567C59.5763 64.493 57.7591 64.8874 56.0813 65.5947L53.4514 61.0421L49.0381 63.5921L51.7054 68.2128C50.2332 69.3314 48.9277 70.6387 47.8073 72.1091L43.185 69.4402L40.635 73.8584L45.1876 76.4867C44.4821 78.163 44.0859 79.9802 43.8496 81.8503H38.5V86.9503H43.8568C44.0931 88.8186 44.4875 90.6376 45.1947 92.3139L40.6422 94.9422L43.1922 99.3604L47.8145 96.6915C48.9347 98.1637 50.2404 99.4692 51.7126 100.588L49.0452 105.209L53.4585 107.759L56.0868 103.206C57.7647 103.913 59.5821 104.308 61.452 104.544V109.9H66.552V104.543C68.4221 104.307 70.2393 103.912 71.9172 103.205L74.5454 107.758L78.9587 105.208L76.2914 100.587C77.7636 99.4684 79.0691 98.1611 80.1895 96.6907L84.8084 99.3581L87.3584 94.9398L82.8059 92.3115C83.5131 90.6353 83.9075 88.818 84.1438 86.9479H89.5V86.9481ZM64 99.6999C55.5629 99.6999 48.7 92.837 48.7 84.3999C48.7 75.9628 55.5629 69.0999 64 69.0999C72.4371 69.0999 79.3 75.9628 79.3 84.3999C79.3 92.8352 72.4371 99.6999 64 99.6999Z" fill="#777777"/>
<path d="M33.4001 13C24.9648 13 18.1001 19.8647 18.1001 28.3C18.1001 36.7353 24.9648 43.6 33.4001 43.6C41.8372 43.6 48.7001 36.7371 48.7001 28.3C48.7001 19.8629 41.8372 13 33.4001 13ZM33.4001 38.5C27.7664 38.5 23.2001 33.9337 23.2001 28.3C23.2001 22.6663 27.7664 18.1 33.4001 18.1C39.0338 18.1 43.6001 22.6663 43.6001 28.3C43.6001 33.9337 39.0338 38.5 33.4001 38.5Z" fill="#777777"/>
<path d="M94.6001 13C86.1629 13 79.3 19.8629 79.3 28.3C79.3 36.7371 86.1647 43.6 94.6001 43.6C103.037 43.6 109.9 36.7371 109.9 28.3C109.9 19.8629 103.037 13 94.6001 13ZM94.6001 38.5C88.9663 38.5 84.4001 33.9337 84.4001 28.3C84.4001 22.6663 88.9663 18.1 94.6001 18.1C100.234 18.1 104.8 22.6663 104.8 28.3C104.8 33.9337 100.234 38.5 94.6001 38.5Z" fill="#777777"/>
<path d="M33.4 71.8644C34.8093 71.8644 35.95 70.7236 35.95 69.3144V53.8002H43.6L44.8308 60.5679C46.2723 59.4068 47.8125 58.3629 49.4514 57.4756L48.6167 52.8874C48.1764 50.4631 46.0649 48.7002 43.6 48.7002H23.2C20.7351 48.7002 18.6235 50.4631 18.1833 52.8874L13.0833 80.9374C12.8129 82.4249 13.2159 83.9565 14.1849 85.1176C15.1539 86.2786 16.5887 86.9502 18.1 86.9502H21.3588L23.2169 110.305C23.4277 112.955 25.6394 115 28.3 115H38.5C41.1606 115 43.3739 112.955 43.5847 110.305L43.8193 107.362C42.0598 105.813 40.4806 104.073 39.1154 102.164L38.5 109.9H28.3L26.0695 81.8502H18.1L23.2 53.8002H30.85V69.3144C30.85 70.7236 31.9907 71.8644 33.4 71.8644Z" fill="#777777"/>
<path d="M114.917 80.9374L109.818 52.889C109.376 50.4631 107.265 48.7002 104.8 48.7002H84.4C81.9351 48.7002 79.8236 50.4631 79.3833 52.8874L78.5486 57.4756C80.1874 58.3629 81.7275 59.4068 83.1693 60.5679L84.4 53.8002H92.05V69.3144C92.05 70.7236 93.1908 71.8644 94.6 71.8644C96.0093 71.8644 97.15 70.7236 97.15 69.3144V53.8002H104.8L109.9 81.8502H101.93L99.7 109.9H89.5L88.8847 102.164C87.5196 104.074 85.9402 105.813 84.1825 107.36L84.4172 110.305C84.6277 112.955 86.8413 115 89.5 115H99.7C102.361 115 104.574 112.955 104.785 110.305L106.641 86.9502H109.9C111.413 86.9502 112.846 86.2786 113.815 85.1176C114.784 83.9565 115.187 82.4265 114.917 80.9374Z" fill="#777777"/>
</g>
</svg>
