<svg width="92" height="92" viewBox="0 0 92 92" fill="none" xmlns="http://www.w3.org/2000/svg">
<path d="M74.75 25.875H63.25V14.375C63.25 13.6125 62.9471 12.8812 62.4079 12.3421C61.8688 11.8029 61.1375 11.5 60.375 11.5H31.625C30.8625 11.5 30.1312 11.8029 29.5921 12.3421C29.0529 12.8812 28.75 13.6125 28.75 14.375V25.875H17.25C16.4875 25.875 15.7562 26.1779 15.2171 26.7171C14.6779 27.2562 14.375 27.9875 14.375 28.75V74.75C14.375 75.5125 14.6779 76.2438 15.2171 76.7829C15.7562 77.3221 16.4875 77.625 17.25 77.625H74.75C75.5125 77.625 76.2438 77.3221 76.7829 76.7829C77.3221 76.2438 77.625 75.5125 77.625 74.75V28.75C77.625 27.9875 77.3221 27.2562 76.7829 26.7171C76.2438 26.1779 75.5125 25.875 74.75 25.875ZM34.5 17.25H57.5V25.875H34.5V17.25ZM71.875 71.875H20.125V31.625H71.875V71.875ZM57.5 51.75C57.5 52.5125 57.1971 53.2438 56.6579 53.7829C56.1188 54.3221 55.3875 54.625 54.625 54.625H48.875V60.375C48.875 61.1375 48.5721 61.8688 48.0329 62.4079C47.4938 62.9471 46.7625 63.25 46 63.25C45.2375 63.25 44.5062 62.9471 43.9671 62.4079C43.4279 61.8688 43.125 61.1375 43.125 60.375V54.625H37.375C36.6125 54.625 35.8812 54.3221 35.3421 53.7829C34.8029 53.2438 34.5 52.5125 34.5 51.75C34.5 50.9875 34.8029 50.2562 35.3421 49.7171C35.8812 49.1779 36.6125 48.875 37.375 48.875H43.125V43.125C43.125 42.3625 43.4279 41.6312 43.9671 41.0921C44.5062 40.5529 45.2375 40.25 46 40.25C46.7625 40.25 47.4938 40.5529 48.0329 41.0921C48.5721 41.6312 48.875 42.3625 48.875 43.125V48.875H54.625C55.3875 48.875 56.1188 49.1779 56.6579 49.7171C57.1971 50.2562 57.5 50.9875 57.5 51.75Z" fill="#346CA4"/>
</svg>
