<svg width="128" height="128" viewBox="0 0 128 128" fill="none" xmlns="http://www.w3.org/2000/svg">
<g opacity="0.1">
<rect width="128" height="128" fill="white"/>
<path d="M83.4735 18.7036C57.4386 6.6728 28.0523 18.7671 18.8863 43.0877C18.7963 43.1512 18.7633 43.271 18.7887 43.374C15.8545 51.3246 15.0609 60.5593 17.251 70.6841C22.8477 96.5575 46.4319 100.204 68.0498 96.0853C67.838 107.085 80.8367 113.31 89.8764 113.258C90.4586 113.255 90.7507 112.502 90.3481 112.071C86.6315 108.094 84.345 103.352 83.5312 97.9046C100.864 97.9189 111.367 81.2988 112.555 64.457C114.078 42.8829 101.925 27.2298 83.4735 18.7036ZM82.0229 96.3187C81.0659 96.2737 81.0715 97.8138 82.0229 97.8664C82.0911 97.8702 82.1573 97.8681 82.2255 97.8714C82.9861 103.174 84.9966 107.799 88.3363 111.814C85.2843 111.616 82.0847 110.78 79.1723 109.371C79.6843 109.578 80.526 109.514 81.0513 109.559C81.887 109.631 82.7153 109.676 83.5542 109.685C83.7628 109.687 83.8233 109.326 83.605 109.294C82.9328 109.193 82.2654 109.107 81.5876 109.052C81.2301 109.024 80.8726 108.999 80.5147 108.973C80.39 108.964 79.602 108.975 79.2227 108.981C79.2708 108.934 79.2978 108.863 79.2538 108.796L79.2022 108.717C79.1626 108.656 79.0977 108.624 79.0283 108.643C78.578 108.762 78.7499 109.128 79.0375 109.305C77.1968 108.4 75.4824 107.256 73.998 105.893C76.034 105.975 78.0631 106.139 80.0894 106.382C80.3852 106.417 80.4562 105.888 80.1604 105.837C77.9037 105.447 75.6394 105.292 73.3569 105.279C72.4325 104.343 71.6211 103.308 70.9448 102.183C72.6528 102.492 74.3599 102.838 76.082 103.041C76.3285 103.07 76.385 102.638 76.1409 102.588C74.3757 102.231 72.5798 102.029 70.798 101.777C70.7685 101.773 70.7483 101.789 70.7233 101.796C70.1124 100.71 69.6468 99.5314 69.3208 98.2805C71.4222 98.4105 73.5449 98.405 75.6269 98.0636C75.9045 98.0178 75.8419 97.525 75.5599 97.5489C73.4339 97.7302 71.3394 97.8777 69.2086 97.7958C69.0271 96.9864 68.8883 96.1555 68.8459 95.2797C68.8205 94.7554 68.135 94.7591 68.0639 95.2515C55.6168 97.1091 41.7349 98.1494 30.8852 90.3619C35.8965 91.049 40.9146 91.6969 45.9388 92.2649C46.2677 92.3019 46.2576 91.7772 45.9388 91.7335C40.6628 91.0077 35.3739 90.3653 30.0826 89.7703C28.5135 88.5581 27.1198 87.1899 25.8682 85.7116C28.8815 86.4095 31.9294 86.9612 35.0104 87.1882C35.3332 87.2122 35.3195 86.7106 35.0104 86.6723C31.7684 86.2683 28.5542 85.8062 25.3594 85.1065C24.0872 83.518 23.0091 81.7869 22.0642 79.976C24.6001 80.1791 27.1364 80.3885 29.6767 80.5121C30.0076 80.5281 29.9999 80.0088 29.6767 79.9806C27.0468 79.7494 24.4104 79.6102 21.7757 79.4609C20.915 77.7399 20.2073 75.9328 19.6154 74.0764C22.3252 74.5545 25.0524 74.7668 27.809 74.6861C28.1507 74.676 28.1528 74.1328 27.809 74.1311C24.9951 74.1164 22.211 73.8721 19.4306 73.4592C18.9735 71.9421 18.6289 70.3856 18.3343 68.8164C23.9803 68.916 29.6328 69.0788 35.2775 68.8715C35.606 68.8593 35.6055 68.3551 35.2775 68.34C29.6013 68.0751 23.9129 68.1844 18.2331 68.2273C17.9361 66.5261 17.7311 64.8068 17.6061 63.0842C17.7102 63.233 17.7618 63.2721 17.9769 63.2557C18.0781 63.2482 18.1467 63.1771 18.1544 63.0707C18.1556 63.0552 18.1568 63.0392 18.158 63.0236C19.519 63.2196 24.8531 63.3306 25.4083 63.2898C25.7512 63.2646 25.7597 62.726 25.4083 62.7268C23.6184 62.7318 21.8197 62.7011 20.033 62.5859C19.2922 62.538 18.0854 62.0725 17.5903 62.8096C17.5048 61.5348 17.4564 60.2582 17.4729 58.9863C17.4854 58.0289 17.5613 57.0917 17.6274 56.1511C20.6572 56.4858 23.6971 56.7726 26.7385 56.9366C27.0577 56.9538 27.0428 56.4648 26.7385 56.4282C23.7221 56.0679 20.6879 55.8265 17.6557 55.6348C17.811 53.7187 18.112 51.8565 18.4816 50.0237C24.8805 50.2659 31.2761 50.4975 37.6795 50.5619C38.1156 50.5661 38.1124 49.8765 37.6795 49.8584C31.3238 49.5919 24.9677 49.4914 18.6079 49.4014C19.0255 47.4668 19.5799 45.5941 20.2239 43.7705C23.3533 44.3571 26.4936 44.5273 29.6775 44.1472C30.0358 44.1044 30.0455 43.5165 29.6775 43.5531C26.5517 43.8651 23.4727 43.7793 20.3905 43.2689C21.2838 40.831 22.3902 38.5147 23.6616 36.3161C27.2683 36.6781 30.8654 37.1129 34.4798 37.3849C34.7772 37.4072 34.7667 36.9413 34.4798 36.9081C30.9542 36.4973 27.4168 36.2416 23.8831 35.9217C25.2997 33.5292 26.9431 31.3041 28.7693 29.2522C32.3571 29.6416 35.9433 30.0536 39.5436 30.2984C39.9539 30.3261 39.9382 29.6878 39.5436 29.6416C36.1131 29.2413 32.669 28.9945 29.2264 28.7342C35.5131 21.8987 43.9948 17.1887 53.8487 15.6552C73.4013 12.6119 97.9755 23.3619 107.51 42.0558C117.91 62.4459 107.493 97.5107 82.0229 96.3187Z" fill="#777777"/>
<path d="M64.3382 28.5202C48.1585 25.9617 32.8789 48.4856 49.0453 59.5926C49.1785 59.6843 49.3128 59.6452 49.4286 59.5695C49.59 59.7478 49.8604 59.8096 50.0847 59.5783C51.3153 58.3123 52.5367 57.037 53.8278 55.8375C54.5138 55.2 56.0785 54.3141 56.3714 53.3336C56.8366 51.777 54.9846 49.6886 54.6618 48.3162C52.8094 40.4446 62.2849 39.3569 65.8356 44.733C68.2859 48.4431 69.2277 57.4411 63.0164 58.2068C62.8284 58.2299 62.6884 58.3237 62.5871 58.4469C62.5242 57.7422 61.423 57.7981 61.3319 58.5785C60.5935 64.8901 60.3861 71.2421 60.5483 77.5949C60.5596 78.0385 60.9554 78.3643 61.3734 78.25C64.6404 77.359 67.7671 77.1534 71.1051 77.5789C71.4271 77.6201 71.7902 77.235 71.7535 76.9032C71.2633 72.448 71.1636 67.9271 70.5745 63.4883C70.6689 63.5282 70.7738 63.5454 70.8912 63.5105C88.6345 58.1858 79.2563 30.879 64.3382 28.5202ZM70.4837 62.5031C70.3897 62.5536 70.332 62.6259 70.29 62.7045C70.104 62.67 69.8696 62.7953 69.8478 63.0266C69.6485 65.1155 69.7098 67.1875 69.8172 69.2823C69.8753 70.4146 70.8226 74.6945 70.3062 75.5203C69.665 76.5458 67.2457 75.9332 66.1168 76.0102C64.6663 76.1094 63.2525 76.3949 61.8455 76.7472C61.7325 70.9242 62.0016 65.1483 62.5351 59.3521C62.6355 59.4854 62.7921 59.5704 63.0168 59.543C72.4648 58.3914 69.6057 42.8926 62.3773 40.2584C59.1103 39.0676 55.2396 40.2651 53.6572 43.6297C52.4903 46.1104 53.4377 47.8398 54.0062 50.2953C54.498 52.4186 54.3112 53.1944 52.9821 54.9549C51.9411 56.3336 50.5419 57.5038 49.4355 58.8484C34.9863 46.7142 49.908 25.8444 65.9138 30.3505C79.9216 34.2949 84.08 55.2379 70.4837 62.5031Z" fill="#777777"/>
<path d="M71.2539 80.118C70.4732 79.5609 68.8039 79.9317 67.9691 79.9477C66.1236 79.9834 64.2292 79.9061 62.4079 80.2382C62.1254 80.2899 62.1246 80.7831 62.4079 80.834C63.4755 81.0258 64.5371 81.0325 65.6192 81.0619C66.8442 81.0947 68.7842 80.7289 69.9268 81.1426C71.0263 81.5408 70.5171 83.3316 70.4699 84.4572C70.4183 85.6854 70.367 86.9135 70.3126 88.1417C68.2136 87.7978 66.1066 87.7688 63.9988 88.1564C63.6486 88.2208 62.587 88.7072 62.2574 88.5723C61.2854 88.1745 61.542 86.829 61.5416 86.0419C61.5408 85.0235 61.0732 81.9928 61.8692 81.228C62.4922 80.6293 61.5945 79.7702 60.9622 80.2828C59.8195 81.2091 60.2113 83.1277 60.2077 84.453C60.2041 85.7955 59.648 88.3986 60.4921 89.5284C61.1079 90.3521 62.1416 90.0401 62.9635 89.8396C65.5809 89.1996 68.1023 89.0861 70.7568 89.5742C71.1781 89.6516 71.5654 89.3922 71.5799 88.9208C71.6461 86.7571 71.7571 84.593 71.8022 82.4284C71.8176 81.6594 71.9798 80.636 71.2539 80.118Z" fill="#777777"/>
<path d="M46.2135 23.2305C42.8255 23.2953 39.4382 23.2099 36.0655 22.8605C35.8072 22.8336 35.7439 23.2999 36.0037 23.3365C39.4051 23.8171 42.7831 24.0264 46.2139 23.8402C46.5872 23.82 46.5924 23.2234 46.2135 23.2305Z" fill="#777777"/>
<path d="M58.7508 19.0116C54.0211 19.0146 49.3052 18.843 44.605 18.2712C44.239 18.2266 44.1491 18.8914 44.5174 18.9469C49.2507 19.6617 53.9695 20.0056 58.7508 19.739C59.1958 19.7138 59.2031 19.0116 58.7508 19.0116Z" fill="#777777"/>
</g>
</svg>
