<svg id="Layer_1" data-name="Layer 1" xmlns="http://www.w3.org/2000/svg" xmlns:xlink="http://www.w3.org/1999/xlink" viewBox="0 0 393.45 165.47"><defs><style>.cls-1{fill:#2a6cac;}.cls-2{fill:url(#linear-gradient);}.cls-3{fill:#243b78;}.cls-4{fill:url(#linear-gradient-2);}.cls-5{font-size:42px;}.cls-5,.cls-8{fill:#223d7a;}.cls-12,.cls-5{font-family:Barlow-SemiBold, Barlow;font-weight:600;}.cls-6{letter-spacing:-0.01em;}.cls-7{letter-spacing:0.02em;}.cls-8{font-size:16px;font-family:Barlow-Bold, Barlow;font-weight:700;letter-spacing:0.43em;}.cls-9{letter-spacing:0.35em;}.cls-10{letter-spacing:0.43em;}.cls-11{letter-spacing:0em;}.cls-12{font-size:13.45px;fill:#4ea6dd;letter-spacing:0.14em;}.cls-13{letter-spacing:0.14em;}.cls-14{letter-spacing:0.14em;}.cls-15{letter-spacing:0.13em;}.cls-16{letter-spacing:0.13em;}.cls-17{letter-spacing:0.14em;}.cls-18{letter-spacing:0.13em;}.cls-19{letter-spacing:0.14em;}.cls-20{letter-spacing:0.13em;}</style><linearGradient id="linear-gradient" x1="24.12" y1="41.43" x2="91.24" y2="41.43" gradientUnits="userSpaceOnUse"><stop offset="0" stop-color="#4ea6dd"/><stop offset="1" stop-color="#2a6cac"/></linearGradient><linearGradient id="linear-gradient-2" x1="24.12" y1="123.96" x2="91.24" y2="123.96" xlink:href="#linear-gradient"/></defs><polygon class="cls-1" points="139.96 48.72 127.79 35.94 118.48 35.94 106.79 24.27 139.69 24.19 139.96 48.72"/><polygon class="cls-2" points="35.79 35.59 35.91 46.73 24.12 58.53 24.12 24.41 35.66 24.39 58.19 24.36 74.34 24.33 80.19 24.32 91.24 35.59 35.79 35.59"/><polygon class="cls-3" points="140.74 58.15 123.88 58.15 82.31 16.36 74.34 24.33 58.19 24.36 82.47 0 88.35 5.87 90.58 8.1 106.79 24.27 118.48 35.94 140.74 58.15"/><polygon class="cls-1" points="139.96 116.76 139.69 141.29 106.78 141.21 118.48 129.54 127.79 129.54 139.96 116.76"/><polygon class="cls-4" points="91.24 129.89 80.19 141.16 74.34 141.15 58.19 141.12 35.66 141.09 24.12 141.07 24.12 106.76 35.67 118.31 35.66 129.89 91.24 129.89"/><polygon class="cls-3" points="140.74 107.33 118.48 129.54 106.78 141.21 90.58 157.38 88.35 159.6 82.47 165.47 58.19 141.12 74.34 141.15 82.31 149.12 123.88 107.33 140.74 107.33"/><polygon class="cls-3" points="40.37 42.28 0 82.65 40 122.65 56.36 122.65 16.63 82.92 57.08 42.47 40.37 42.28"/><polyline class="cls-3" points="35.23 74.21 25.69 82.45 35.4 92.17 35.4 74.21"/><text class="cls-5" transform="translate(62.31 96.99)"><tspan class="cls-6">C</tspan><tspan x="25.12" y="0">AREER C</tspan><tspan class="cls-7" x="187.49" y="0">R</tspan><tspan x="214.2" y="0">AFT</tspan></text><text class="cls-8" transform="translate(147.19 118)">INTERN<tspan class="cls-9" x="95.58" y="0">A</tspan><tspan class="cls-10" x="111.87" y="0">TIONA</tspan><tspan class="cls-11" x="191.39" y="0">L</tspan></text><text class="cls-12" transform="translate(147.91 134.37)">T<tspan class="cls-13" x="9.67" y="0">h</tspan><tspan class="cls-14" x="18.82" y="0">e </tspan><tspan class="cls-15" x="32.55" y="0">R</tspan><tspan class="cls-16" x="42.59" y="0">e</tspan><tspan x="51.65" y="0">s</tspan><tspan class="cls-17" x="60.16" y="0">p</tspan><tspan class="cls-14" x="69.56" y="0">onsible </tspan><tspan class="cls-18" x="130.18" y="0">R</tspan><tspan class="cls-19" x="140.22" y="0">ecrui</tspan><tspan class="cls-20" x="179.82" y="0">t</tspan><tspan x="186.59" y="0">er</tspan></text></svg>