<svg width="92" height="94" viewBox="0 0 92 94" fill="none" xmlns="http://www.w3.org/2000/svg">
<path d="M85.4076 56.334L76.7826 47.5743C76.5158 47.303 76.1989 47.0878 75.8502 46.941C75.5014 46.7942 75.1275 46.7186 74.75 46.7186C74.3725 46.7186 73.9986 46.7942 73.6498 46.941C73.3011 47.0878 72.9842 47.303 72.7174 47.5743L46 74.7088V87.5976H58.6905L85.4076 60.4628C85.6747 60.1918 85.8866 59.87 86.0311 59.5158C86.1757 59.1615 86.2501 58.7819 86.2501 58.3984C86.2501 58.015 86.1757 57.6353 86.0311 57.2811C85.8866 56.9269 85.6747 56.605 85.4076 56.334ZM56.3095 81.7578H51.75V77.1271L66.125 62.5275L70.6845 67.1582L56.3095 81.7578ZM74.75 63.0291L70.1905 58.3984L74.75 53.7677L79.3095 58.3984L74.75 63.0291Z" fill="#346CA4"/>
<path d="M57.5 37.959V32.1191H51.3415C51.0739 31.074 50.6627 30.0724 50.1202 29.1437L54.4813 24.7154L50.4149 20.5854L46.0546 25.0147C45.1402 24.4638 44.154 24.0462 43.125 23.7743V17.5195H37.375V23.7743C36.346 24.0462 35.3598 24.4638 34.4454 25.0147L30.0852 20.5854L26.0188 24.7154L30.3798 29.1437C29.8373 30.0724 29.4261 31.074 29.1585 32.1191H23V37.959H29.1585C29.4261 39.0041 29.8373 40.0057 30.3798 40.9344L26.0188 45.3627L30.0852 49.4927L34.4454 45.0643C35.3599 45.6149 36.3461 46.0322 37.375 46.3038V52.5586H43.125V46.3038C44.154 46.0319 45.1402 45.6143 46.0546 45.0634L50.4149 49.4927L54.4813 45.3627L50.1202 40.9344C50.6627 40.0057 51.0739 39.0041 51.3415 37.959H57.5ZM40.25 40.8789C39.1128 40.8789 38.0011 40.5364 37.0555 39.8947C36.1099 39.253 35.3729 38.341 34.9377 37.2739C34.5025 36.2068 34.3886 35.0326 34.6105 33.8998C34.8323 32.7669 35.38 31.7264 36.1841 30.9097C36.9883 30.093 38.0128 29.5368 39.1282 29.3114C40.2436 29.0861 41.3998 29.2017 42.4504 29.6438C43.5011 30.0858 44.3991 30.8343 45.031 31.7946C45.6628 32.755 46 33.8841 46 35.0391C45.9981 36.5873 45.3917 38.0716 44.3138 39.1663C43.2358 40.2611 41.7744 40.877 40.25 40.8789Z" fill="#346CA4"/>
<path d="M34.5 87.5977H17.25C15.7255 87.596 14.2639 86.9802 13.1859 85.8854C12.1079 84.7906 11.5016 83.3061 11.5 81.7578V11.6797C11.5016 10.1314 12.1079 8.64692 13.1859 7.55209C14.2639 6.45726 15.7255 5.84147 17.25 5.83984H63.25C64.7745 5.84147 66.2361 6.45726 67.3141 7.55209C68.3921 8.64692 68.9984 10.1314 69 11.6797V40.8789H63.25V11.6797H17.25V81.7578H34.5V87.5977Z" fill="#346CA4"/>
</svg>
