<svg width="128" height="130" viewBox="0 0 128 130" fill="none" xmlns="http://www.w3.org/2000/svg">
<rect width="128" height="129.401" transform="translate(0 0.284668)" fill="white"/>
<path d="M87.5361 101.689L87.5535 107.942C87.5611 110.625 89.7146 112.795 92.3669 112.795C92.3714 112.795 92.3763 112.795 92.3808 112.795C95.0395 112.787 97.1885 110.602 97.1809 107.914L97.1635 101.689H87.5361Z" fill="#777777" fill-opacity="0.1"/>
<path d="M75.7479 100.444L75.7473 107.927C75.7471 110.615 77.9021 112.794 80.5607 112.794C80.5609 112.794 80.5609 112.794 80.5611 112.794C83.2193 112.794 85.3747 110.615 85.3747 107.928L85.3751 101.689H79.2477C77.9246 101.689 76.7077 101.222 75.7479 100.444Z" fill="#777777" fill-opacity="0.1"/>
<path d="M35.7664 34.2813C40.358 34.2813 44.0801 30.5181 44.0801 25.876C44.0801 21.2339 40.358 17.4707 35.7664 17.4707C31.1748 17.4707 27.4526 21.2339 27.4526 25.876C27.4526 30.5181 31.1748 34.2813 35.7664 34.2813Z" fill="#777777" fill-opacity="0.1"/>
<path d="M56.4862 51.6992L43.8899 50.2051L35.6523 41.93L43.4659 46.0716L46.3468 46.4132V42.8158C46.3468 39.6799 43.8324 37.1377 40.7305 37.1377H30.7151C27.6134 37.1377 25.0989 39.6799 25.0989 42.8158L25 107.914C24.9924 110.602 27.1415 112.787 29.8001 112.794C29.8048 112.794 29.8093 112.794 29.814 112.794C32.4661 112.794 34.6199 110.625 34.6274 107.942L34.7281 71.9615C34.7281 71.957 34.7279 71.9524 34.7279 71.9479H36.8039L36.8066 107.928C36.8068 110.616 38.9622 112.795 41.6206 112.795C44.279 112.794 46.4342 110.615 46.434 107.928C46.4307 64.6377 46.3466 62.747 46.3466 62.747L41.111 62.1261C39.5098 61.9362 37.5427 61.9747 36.3909 59.8239L29.9972 47.684L39.2182 56.9471C39.8553 57.5871 40.6863 57.9924 41.5782 58.0981L55.5512 59.7554C57.7538 60.0163 59.7447 58.4225 60.0026 56.2C60.261 53.9751 58.6866 51.9601 56.4862 51.6992Z" fill="#777777" fill-opacity="0.1"/>
<path d="M86.4148 34.2813C91.0064 34.2813 94.7286 30.5181 94.7286 25.876C94.7286 21.2339 91.0064 17.4707 86.4148 17.4707C81.8233 17.4707 78.1011 21.2339 78.1011 25.876C78.1011 30.5181 81.8233 34.2813 86.4148 34.2813Z" fill="#777777" fill-opacity="0.1"/>
<path d="M101.394 79.7575H97.1896C97.1896 77.1888 97.1896 76.7427 97.1896 73.749C97.1896 72.6062 96.2733 71.6799 95.143 71.6799H94.506C94.7348 70.2397 96.2666 60.5967 96.5107 59.0592C96.6173 58.3888 96.5555 57.7023 96.3315 57.0624L91.5817 43.5029L91.8668 43.9312L97.0825 51.7689V42.8158C97.0825 39.6799 94.568 37.1377 91.4663 37.1377H81.4508C78.3492 37.1377 75.8346 39.6799 75.8346 42.8158V44.2585L62.9768 51.6893C63.8054 53.1461 64.1955 54.8748 63.9869 56.6721C63.7213 58.9622 62.5349 60.9151 60.8472 62.2019C61.0436 62.1268 61.2372 62.0372 61.4255 61.9285L75.8344 53.6013L75.7495 77.4836C77.4385 76.1157 79.1086 76.2401 79.9731 76.2401V73.749C79.9731 71.5603 81.2405 69.6063 83.1458 68.6958L84.9741 57.1861L84.2413 48.7429L84.019 46.2111L88.427 58.7948C88.2146 60.1316 86.6177 70.1844 86.3803 71.6799H85.4988C84.3686 71.6799 83.4523 72.6062 83.4523 73.749C83.4523 76.7172 83.4523 77.2061 83.4523 79.7575H79.2478C78.0731 79.7575 77.121 80.7202 77.121 81.9076V96.0216C77.121 97.2092 78.0733 98.1717 79.2478 98.1717H101.394C102.569 98.1717 103.521 97.209 103.521 96.0216V81.9076C103.521 80.7202 102.569 79.7575 101.394 79.7575ZM89.5933 77.0301C89.8088 77.065 90.0229 77.082 90.2343 77.082C91.136 77.082 91.9853 76.7708 92.6694 76.2399H93.0963V79.7573H87.5454V76.2399H87.7817C88.2942 76.6394 88.9096 76.9192 89.5933 77.0301Z" fill="#777777" fill-opacity="0.1"/>
</svg>
