<svg width="60" height="62" viewBox="0 0 60 62" fill="none" xmlns="http://www.w3.org/2000/svg">
<rect width="60" height="61.2121" rx="8" fill="url(#paint0_linear_45_20)"/>
<g clip-path="url(#clip0_45_20)">
<path d="M40.1152 46.9907L40.1232 49.8111C40.1266 51.0214 41.1088 52.0002 42.3184 52.0002C42.3204 52.0002 42.3227 52.0002 42.3247 52.0002C43.5372 51.9968 44.5173 51.0111 44.5139 49.7987L44.5059 46.9907H40.1152Z" fill="white"/>
<path d="M34.7388 46.4287L34.7385 49.8043C34.7384 51.0168 35.7212 51.9997 36.9337 51.9998C36.9338 51.9998 36.9338 51.9998 36.9339 51.9998C38.1463 51.9998 39.1293 51.017 39.1293 49.8046L39.1294 46.9902H36.3349C35.7315 46.9904 35.1765 46.7797 34.7388 46.4287Z" fill="white"/>
<path d="M16.505 16.5832C18.599 16.5832 20.2965 14.8856 20.2965 12.7916C20.2965 10.6975 18.599 9 16.505 9C14.4109 9 12.7134 10.6975 12.7134 12.7916C12.7134 14.8856 14.4109 16.5832 16.505 16.5832Z" fill="white"/>
<path d="M25.9544 24.4402L20.2097 23.7663L16.4528 20.0334L20.0163 21.9016L21.3302 22.0557V20.4329C21.3302 19.0184 20.1835 17.8716 18.7688 17.8716H14.2012C12.7866 17.8716 11.6398 19.0184 11.6398 20.4329L11.5947 49.7985C11.5913 51.0109 12.5714 51.9966 13.7839 52C13.786 52 13.7881 52 13.7902 52C14.9997 52 15.982 51.0212 15.9854 49.8109L16.0314 33.5805C16.0314 33.5784 16.0313 33.5764 16.0313 33.5743H16.978L16.9792 49.8049C16.9793 51.0173 17.9623 52.0002 19.1747 52.0001C20.3871 52 21.37 51.017 21.3699 49.8046C21.3684 30.2767 21.3301 29.4239 21.3301 29.4239L18.9423 29.1438C18.2121 29.0581 17.315 29.0754 16.7897 28.1052L13.8738 22.629L18.0791 26.8075C18.3696 27.0962 18.7487 27.279 19.1554 27.3267L25.528 28.0743C26.5325 28.192 27.4405 27.4731 27.5581 26.4705C27.6759 25.4669 26.9579 24.5579 25.9544 24.4402Z" fill="white"/>
<path d="M39.6036 16.5832C41.6976 16.5832 43.3952 14.8856 43.3952 12.7916C43.3952 10.6975 41.6976 9 39.6036 9C37.5096 9 35.812 10.6975 35.812 12.7916C35.812 14.8856 37.5096 16.5832 39.6036 16.5832Z" fill="white"/>
<path d="M46.4351 37.0972H44.5175C44.5175 35.9384 44.5175 35.7372 44.5175 34.3868C44.5175 33.8713 44.0996 33.4534 43.5842 33.4534H43.2936C43.398 32.8037 44.0966 28.4538 44.2079 27.7603C44.2565 27.4579 44.2283 27.1482 44.1261 26.8595L41.96 20.7429L42.09 20.9361L44.4687 24.4717V20.4329C44.4687 19.0184 43.3219 17.8716 41.9073 17.8716H37.3397C35.9251 17.8716 34.7783 19.0184 34.7783 20.4329V21.0838L28.9143 24.4357C29.2923 25.0929 29.4701 25.8727 29.375 26.6835C29.2539 27.7165 28.7128 28.5975 27.9431 29.1779C28.0327 29.144 28.121 29.1036 28.2069 29.0546L34.7782 25.2982L34.7395 36.0714C35.5098 35.4544 36.2715 35.5105 36.6657 35.5105V34.3868C36.6657 33.3995 37.2437 32.518 38.1127 32.1073L38.9465 26.9153L38.6123 23.1067L38.5109 21.9645L40.5212 27.641C40.4243 28.244 39.6961 32.7788 39.5878 33.4534H39.1858C38.6703 33.4534 38.2525 33.8713 38.2525 34.3868C38.2525 35.7257 38.2525 35.9463 38.2525 37.0972H36.3349C35.7992 37.0972 35.365 37.5315 35.365 38.0671V44.4339C35.365 44.9696 35.7993 45.4038 36.3349 45.4038H46.435C46.9708 45.4038 47.405 44.9695 47.405 44.4339V38.0671C47.4051 37.5315 46.9708 37.0972 46.4351 37.0972ZM41.0531 35.8669C41.1514 35.8826 41.249 35.8903 41.3455 35.8903C41.7567 35.8903 42.144 35.7499 42.456 35.5104H42.6507V37.0971H40.1191V35.5104H40.2269C40.4607 35.6906 40.7413 35.8168 41.0531 35.8669Z" fill="white"/>
</g>
<defs>
<linearGradient id="paint0_linear_45_20" x1="54.1936" y1="10.1197" x2="99.3565" y2="92.2979" gradientUnits="userSpaceOnUse">
<stop stop-color="#569BE0"/>
<stop offset="1" stop-color="#346CA4"/>
</linearGradient>
<clipPath id="clip0_45_20">
<rect width="43" height="43" fill="white" transform="translate(8 9)"/>
</clipPath>
</defs>
</svg>
