<svg width="1238" height="8" viewBox="0 0 1238 8" fill="none" xmlns="http://www.w3.org/2000/svg">
<path d="M22.5 4C22.5 6.20914 24.2909 8 26.5 8C28.7091 8 30.5 6.20914 30.5 4C30.5 1.79086 28.7091 0 26.5 0C24.2909 0 22.5 1.79086 22.5 4Z" fill="#0073D5"/>
<path d="M1 4C1 5.933 2.567 7.5 4.5 7.5C6.433 7.5 8 5.933 8 4C8 2.067 6.433 0.5 4.5 0.5C2.567 0.5 1 2.067 1 4Z" stroke="#0073D5"/>
<path d="M156.5 4C156.5 6.20914 158.291 8 160.5 8C162.709 8 164.5 6.20914 164.5 4C164.5 1.79086 162.709 0 160.5 0C158.291 0 156.5 1.79086 156.5 4Z" fill="#0073D5"/>
<path d="M135 4C135 5.933 136.567 7.5 138.5 7.5C140.433 7.5 142 5.933 142 4C142 2.067 140.433 0.5 138.5 0.5C136.567 0.5 135 2.067 135 4Z" stroke="#0073D5"/>
<path d="M290.5 4C290.5 6.20914 292.291 8 294.5 8C296.709 8 298.5 6.20914 298.5 4C298.5 1.79086 296.709 0 294.5 0C292.291 0 290.5 1.79086 290.5 4Z" fill="#0073D5"/>
<path d="M269 4C269 5.933 270.567 7.5 272.5 7.5C274.433 7.5 276 5.933 276 4C276 2.067 274.433 0.5 272.5 0.5C270.567 0.5 269 2.067 269 4Z" stroke="#0073D5"/>
<path d="M424.5 4C424.5 6.20914 426.291 8 428.5 8C430.709 8 432.5 6.20914 432.5 4C432.5 1.79086 430.709 0 428.5 0C426.291 0 424.5 1.79086 424.5 4Z" fill="#0073D5"/>
<path d="M403 4C403 5.933 404.567 7.5 406.5 7.5C408.433 7.5 410 5.933 410 4C410 2.067 408.433 0.5 406.5 0.5C404.567 0.5 403 2.067 403 4Z" stroke="#0073D5"/>
<path d="M558.5 4C558.5 6.20914 560.291 8 562.5 8C564.709 8 566.5 6.20914 566.5 4C566.5 1.79086 564.709 0 562.5 0C560.291 0 558.5 1.79086 558.5 4Z" fill="#0073D5"/>
<path d="M537 4C537 5.933 538.567 7.5 540.5 7.5C542.433 7.5 544 5.933 544 4C544 2.067 542.433 0.5 540.5 0.5C538.567 0.5 537 2.067 537 4Z" stroke="#0073D5"/>
<path d="M692.5 4C692.5 6.20914 694.291 8 696.5 8C698.709 8 700.5 6.20914 700.5 4C700.5 1.79086 698.709 0 696.5 0C694.291 0 692.5 1.79086 692.5 4Z" fill="#0073D5"/>
<path d="M671 4C671 5.933 672.567 7.5 674.5 7.5C676.433 7.5 678 5.933 678 4C678 2.067 676.433 0.5 674.5 0.5C672.567 0.5 671 2.067 671 4Z" stroke="#0073D5"/>
<path d="M827.5 4C827.5 6.20914 829.291 8 831.5 8C833.709 8 835.5 6.20914 835.5 4C835.5 1.79086 833.709 0 831.5 0C829.291 0 827.5 1.79086 827.5 4Z" fill="#0073D5"/>
<path d="M806 4C806 5.933 807.567 7.5 809.5 7.5C811.433 7.5 813 5.933 813 4C813 2.067 811.433 0.5 809.5 0.5C807.567 0.5 806 2.067 806 4Z" stroke="#0073D5"/>
<path d="M961.5 4C961.5 6.20914 963.291 8 965.5 8C967.709 8 969.5 6.20914 969.5 4C969.5 1.79086 967.709 0 965.5 0C963.291 0 961.5 1.79086 961.5 4Z" fill="#0073D5"/>
<path d="M940 4C940 5.933 941.567 7.5 943.5 7.5C945.433 7.5 947 5.933 947 4C947 2.067 945.433 0.5 943.5 0.5C941.567 0.5 940 2.067 940 4Z" stroke="#0073D5"/>
<path d="M1095.5 4C1095.5 6.20914 1097.29 8 1099.5 8C1101.71 8 1103.5 6.20914 1103.5 4C1103.5 1.79086 1101.71 0 1099.5 0C1097.29 0 1095.5 1.79086 1095.5 4Z" fill="#0073D5"/>
<path d="M1074 4C1074 5.933 1075.57 7.5 1077.5 7.5C1079.43 7.5 1081 5.933 1081 4C1081 2.067 1079.43 0.5 1077.5 0.5C1075.57 0.5 1074 2.067 1074 4Z" stroke="#0073D5"/>
<path d="M1229.5 4C1229.5 6.20914 1231.29 8 1233.5 8C1235.71 8 1237.5 6.20914 1237.5 4C1237.5 1.79086 1235.71 0 1233.5 0C1231.29 0 1229.5 1.79086 1229.5 4Z" fill="#0073D5"/>
<path d="M1208 4C1208 5.933 1209.57 7.5 1211.5 7.5C1213.43 7.5 1215 5.933 1215 4C1215 2.067 1213.43 0.5 1211.5 0.5C1209.57 0.5 1208 2.067 1208 4Z" stroke="#0073D5"/>
<path d="M88.5 4C88.5 6.20914 90.2909 8 92.5 8C94.7091 8 96.5 6.20914 96.5 4C96.5 1.79086 94.7091 0 92.5 0C90.2909 0 88.5 1.79086 88.5 4Z" fill="#0073D5"/>
<path d="M67 4C67 5.933 68.567 7.5 70.5 7.5C72.433 7.5 74 5.933 74 4C74 2.067 72.433 0.5 70.5 0.5C68.567 0.5 67 2.067 67 4Z" stroke="#0073D5"/>
<path d="M222.5 4C222.5 6.20914 224.291 8 226.5 8C228.709 8 230.5 6.20914 230.5 4C230.5 1.79086 228.709 0 226.5 0C224.291 0 222.5 1.79086 222.5 4Z" fill="#0073D5"/>
<path d="M201 4C201 5.933 202.567 7.5 204.5 7.5C206.433 7.5 208 5.933 208 4C208 2.067 206.433 0.5 204.5 0.5C202.567 0.5 201 2.067 201 4Z" stroke="#0073D5"/>
<path d="M356.5 4C356.5 6.20914 358.291 8 360.5 8C362.709 8 364.5 6.20914 364.5 4C364.5 1.79086 362.709 0 360.5 0C358.291 0 356.5 1.79086 356.5 4Z" fill="#0073D5"/>
<path d="M335 4C335 5.933 336.567 7.5 338.5 7.5C340.433 7.5 342 5.933 342 4C342 2.067 340.433 0.5 338.5 0.5C336.567 0.5 335 2.067 335 4Z" stroke="#0073D5"/>
<path d="M490.5 4C490.5 6.20914 492.291 8 494.5 8C496.709 8 498.5 6.20914 498.5 4C498.5 1.79086 496.709 0 494.5 0C492.291 0 490.5 1.79086 490.5 4Z" fill="#0073D5"/>
<path d="M469 4C469 5.933 470.567 7.5 472.5 7.5C474.433 7.5 476 5.933 476 4C476 2.067 474.433 0.5 472.5 0.5C470.567 0.5 469 2.067 469 4Z" stroke="#0073D5"/>
<path d="M624.5 4C624.5 6.20914 626.291 8 628.5 8C630.709 8 632.5 6.20914 632.5 4C632.5 1.79086 630.709 0 628.5 0C626.291 0 624.5 1.79086 624.5 4Z" fill="#0073D5"/>
<path d="M603 4C603 5.933 604.567 7.5 606.5 7.5C608.433 7.5 610 5.933 610 4C610 2.067 608.433 0.5 606.5 0.5C604.567 0.5 603 2.067 603 4Z" stroke="#0073D5"/>
<path d="M759.5 4C759.5 6.20914 761.291 8 763.5 8C765.709 8 767.5 6.20914 767.5 4C767.5 1.79086 765.709 0 763.5 0C761.291 0 759.5 1.79086 759.5 4Z" fill="#0073D5"/>
<path d="M738 4C738 5.933 739.567 7.5 741.5 7.5C743.433 7.5 745 5.933 745 4C745 2.067 743.433 0.5 741.5 0.5C739.567 0.5 738 2.067 738 4Z" stroke="#0073D5"/>
<path d="M893.5 4C893.5 6.20914 895.291 8 897.5 8C899.709 8 901.5 6.20914 901.5 4C901.5 1.79086 899.709 0 897.5 0C895.291 0 893.5 1.79086 893.5 4Z" fill="#0073D5"/>
<path d="M872 4C872 5.933 873.567 7.5 875.5 7.5C877.433 7.5 879 5.933 879 4C879 2.067 877.433 0.5 875.5 0.5C873.567 0.5 872 2.067 872 4Z" stroke="#0073D5"/>
<path d="M1027.5 4C1027.5 6.20914 1029.29 8 1031.5 8C1033.71 8 1035.5 6.20914 1035.5 4C1035.5 1.79086 1033.71 0 1031.5 0C1029.29 0 1027.5 1.79086 1027.5 4Z" fill="#0073D5"/>
<path d="M1006 4C1006 5.933 1007.57 7.5 1009.5 7.5C1011.43 7.5 1013 5.933 1013 4C1013 2.067 1011.43 0.5 1009.5 0.5C1007.57 0.5 1006 2.067 1006 4Z" stroke="#0073D5"/>
<path d="M1161.5 4C1161.5 6.20914 1163.29 8 1165.5 8C1167.71 8 1169.5 6.20914 1169.5 4C1169.5 1.79086 1167.71 0 1165.5 0C1163.29 0 1161.5 1.79086 1161.5 4Z" fill="#0073D5"/>
<path d="M1140 4C1140 5.933 1141.57 7.5 1143.5 7.5C1145.43 7.5 1147 5.933 1147 4C1147 2.067 1145.43 0.5 1143.5 0.5C1141.57 0.5 1140 2.067 1140 4Z" stroke="#0073D5"/>
</svg>
