<svg width="137" height="859" viewBox="0 0 137 859" fill="none" xmlns="http://www.w3.org/2000/svg">
<path d="M131.058 858.542L-5.26041 857.92L-4.99512 799.744C-4.96535 793.217 -3.59422 787.271 -0.881725 781.907C1.70335 776.415 5.24491 771.695 9.74296 767.747C14.113 763.799 19.055 760.75 24.5688 758.599C30.0827 756.448 35.7196 755.386 41.4795 755.412C49.2875 755.448 56.7029 757.337 63.7259 761.081C70.7495 764.698 76.4864 769.78 80.9366 776.328C85.2593 782.748 87.4006 790.374 87.3603 799.206L87.2342 826.853L131.202 827.054L131.058 858.542ZM59.7785 826.728L59.8958 801C59.9069 798.568 59.2132 796.325 57.8145 794.271C56.4159 792.216 54.3115 790.543 51.5013 789.25C48.6912 787.957 45.2382 787.301 41.1422 787.283C36.9182 787.263 33.4588 788.016 30.7638 789.539C27.9414 790.935 25.885 792.781 24.5945 795.079C23.3046 797.25 22.6541 799.551 22.643 801.983L22.5309 826.558L59.7785 826.728ZM131.604 738.918L-4.71489 738.296L-4.43471 676.857C-4.40553 670.457 -3.03469 664.575 -0.322197 659.211C2.26287 653.719 5.80443 648.999 10.3025 645.052C14.6725 641.104 19.6145 638.054 25.1284 635.903C30.6428 633.624 36.216 632.498 41.8479 632.523C47.4799 632.549 52.8517 633.47 57.9635 635.285C62.9473 637.1 67.4796 639.68 71.5604 643.027C75.5131 646.373 78.759 650.356 81.298 654.975L132.122 625.255L131.964 660.007L87.8769 685.918L87.7797 707.23L131.747 707.43L131.604 738.918ZM60.324 707.104L60.4554 678.305C60.467 675.745 59.7093 673.501 58.182 671.574C56.5274 669.519 54.295 667.844 51.4849 666.552C48.6747 665.259 45.4137 664.604 41.7017 664.587C37.9898 664.57 34.7863 665.323 32.0913 666.847C29.2689 668.242 27.0848 670.024 25.5389 672.193C23.993 674.362 23.2145 676.663 23.2034 679.095L23.0764 706.935L60.324 707.104ZM133.609 551.9C133.562 562.14 131.6 571.411 127.722 579.714C123.716 587.888 118.436 594.968 111.881 600.954C105.198 606.811 97.7532 611.322 89.5467 614.484C81.2122 617.646 72.629 619.207 63.7971 619.167C54.7092 619.125 46.0769 617.422 37.9001 614.057C29.724 610.563 22.4496 605.794 16.0771 599.749C9.57722 593.575 4.49025 586.32 0.816225 577.983C-2.85779 569.646 -4.67233 560.55 -4.62738 550.694C-4.58127 540.582 -2.55555 531.439 1.44976 523.265C5.32766 514.963 10.608 507.883 17.2908 502.025C23.9742 496.04 31.4831 491.466 39.8176 488.304C48.0241 485.141 56.4153 483.58 64.9912 483.619C74.0791 483.66 82.7115 485.364 90.8882 488.729C99.0649 492.094 106.403 496.864 112.903 503.038C119.275 509.211 124.362 516.466 128.164 524.803C131.839 533.012 133.654 542.045 133.609 551.9ZM64.3273 587.105C69.5752 587.129 74.6987 586.384 79.6976 584.871C84.5686 583.357 88.9308 581.137 92.7842 578.211C96.6381 575.156 99.7273 571.394 102.052 566.925C104.376 562.455 105.551 557.341 105.578 551.581C105.605 545.565 104.477 540.311 102.194 535.821C99.782 531.33 96.599 527.603 92.6444 524.641C88.6899 521.679 84.2839 519.483 79.4264 518.053C74.4414 516.494 69.389 515.703 64.269 515.68C59.0211 515.656 53.9616 516.401 49.0907 517.915C44.2197 519.428 39.8572 521.713 36.0033 524.767C32.0213 527.821 28.9321 531.583 26.7357 536.053C24.5393 540.523 23.4283 545.574 23.4026 551.206C23.3751 557.222 24.5032 562.475 26.7867 566.965C29.0709 571.328 32.1899 575.054 36.1439 578.144C39.9704 581.106 44.3761 583.366 49.3611 584.925C54.2186 586.355 59.2074 587.082 64.3273 587.105ZM63.5023 473.289C55.1824 473.251 47.0615 471.678 39.1396 468.57C31.0897 465.461 23.8142 460.948 17.3131 455.03C10.812 449.112 5.66076 441.921 1.85932 433.455C-2.07011 424.989 -4.01031 415.38 -3.96128 404.629C-3.90291 391.829 -1.10045 380.769 4.44611 371.451C9.99325 362.004 17.1933 354.997 26.0462 350.429L42.8317 374.698C37.9584 376.723 34.1699 379.458 31.4662 382.902C28.763 386.218 26.8901 389.921 25.8474 394.012C24.6774 397.975 24.0839 401.812 24.0669 405.524C24.0395 411.54 25.2316 416.794 27.6431 421.285C29.9266 425.775 33.0457 429.502 37.0002 432.464C40.9548 435.426 45.3608 437.622 50.2183 439.052C55.0758 440.482 59.9366 441.208 64.8005 441.231C70.1765 441.255 75.3642 440.447 80.3637 438.805C85.3633 437.164 89.79 434.816 93.644 431.762C97.4986 428.58 100.588 424.754 102.912 420.284C105.109 415.814 106.219 410.891 106.244 405.515C106.261 401.675 105.639 397.768 104.377 393.795C103.115 389.821 101.148 386.164 98.4752 382.823C95.675 379.355 92.039 376.714 87.5672 374.902L102.852 349.243C109.496 351.961 115.172 356.403 119.88 362.569C124.588 368.734 128.204 375.727 130.728 383.547C133.125 391.238 134.306 398.859 134.272 406.411C134.227 416.267 132.202 425.346 128.196 433.648C124.062 441.821 118.654 448.9 111.971 454.886C105.16 460.743 97.587 465.316 89.2519 468.606C80.7894 471.768 72.2062 473.329 63.5023 473.289ZM106.242 237.614L133.889 237.74L133.452 333.547L-2.86628 332.925L-2.43726 238.846L25.2105 238.972L24.925 301.564L51.4207 301.685L51.6659 247.925L77.2016 248.042L76.9565 301.801L105.948 301.933L106.242 237.614ZM37.9664 136.38C37.3247 136.761 36.3586 138.101 35.0681 140.399C33.6496 142.696 32.1645 145.57 30.6127 149.019C29.061 152.468 27.6998 156.237 26.5291 160.328C25.3584 164.419 24.7638 168.512 24.7451 172.608C24.7206 177.984 25.6616 182.148 27.5682 185.101C29.3467 188.053 32.156 189.538 35.9959 189.556C39.0679 189.57 41.5048 188.493 43.3067 186.325C45.1092 184.029 46.7241 180.772 48.1513 176.555C49.4506 172.337 51.0102 167.16 52.8302 161.024C55.1739 152.331 58.0243 144.792 61.3814 138.407C64.6106 132.021 68.7927 127.176 73.9279 123.872C79.0636 120.439 85.8554 118.742 94.3033 118.781C101.983 118.816 108.505 120.253 113.868 123.094C119.103 125.934 123.373 129.793 126.679 134.673C129.858 139.423 132.201 144.874 133.709 151.025C135.089 157.175 135.764 163.514 135.734 170.042C135.704 176.698 135.032 183.543 133.72 190.577C132.281 197.483 130.33 204.13 127.869 210.519C125.28 216.907 122.181 222.781 118.573 228.141L91.1802 214.191C91.8225 213.682 93.0461 212.024 94.8509 209.216C96.5277 206.408 98.3354 202.96 100.274 198.873C102.085 194.657 103.707 189.992 105.138 184.879C106.569 179.765 107.297 174.585 107.321 169.337C107.347 163.705 106.47 159.541 104.69 156.844C102.911 154.02 100.421 152.601 97.2212 152.586C93.7652 152.571 91.0705 154.03 89.1371 156.966C87.2043 159.773 85.4585 163.669 83.8997 168.654C82.3416 173.511 80.5879 179.135 78.6387 185.526C76.0408 193.834 73.1293 200.733 69.9043 206.222C66.6798 211.584 62.7574 215.598 58.1372 218.265C53.5176 220.804 47.7518 222.057 40.8399 222.026C31.24 221.982 23.1863 219.705 16.6788 215.196C10.0439 210.557 5.07995 204.391 1.78701 196.696C-1.63393 189 -3.32368 180.608 -3.28224 171.52C-3.25305 165.12 -2.45705 158.98 -0.894215 153.099C0.669207 147.09 2.61458 141.531 4.94191 136.421C7.26981 131.184 9.5951 126.522 11.9178 122.437L37.9664 136.38ZM38.5051 18.2562C37.8634 18.6373 36.8973 19.9769 35.6068 22.275C34.1883 24.5726 32.7032 27.4458 31.1514 30.8948C29.5997 34.3438 28.2385 38.1136 27.0678 42.2043C25.8971 46.295 25.3024 50.3883 25.2838 54.4843C25.2592 59.8602 26.2003 64.0246 28.1068 66.9773C29.8854 69.9294 32.6946 71.4143 36.5346 71.4318C39.6066 71.4458 42.0435 70.3689 43.8454 68.2011C45.6479 65.9053 47.2628 62.6486 48.69 58.4311C49.9893 54.2129 51.5489 49.036 53.3689 42.9002C55.7126 34.2068 58.563 26.6678 61.9201 20.283C65.1493 13.8977 69.3314 9.05268 74.4665 5.74807C79.6022 2.31545 86.3941 0.618402 94.842 0.656927C102.522 0.69195 109.043 2.12971 114.406 4.97019C119.642 7.81009 123.912 11.6696 127.218 16.5487C130.396 21.2993 132.739 26.75 134.247 32.901C135.627 39.0513 136.302 45.3905 136.273 51.9184C136.242 58.5743 135.571 65.4193 134.259 72.4534C132.819 79.3589 130.869 86.0061 128.408 92.395C125.819 98.7832 122.72 104.657 119.112 110.017L91.7188 96.0677C92.3612 95.5586 93.5847 93.9002 95.3896 91.0924C97.0664 88.284 98.8741 84.8362 100.813 80.749C102.624 76.5332 104.245 71.8686 105.677 66.755C107.108 61.6415 107.836 56.4608 107.86 51.2128C107.885 45.5809 107.008 41.4168 105.228 38.7207C103.449 35.8965 100.96 34.4772 97.7598 34.4626C94.3039 34.4468 91.6092 35.9066 89.6758 38.8418C87.743 41.649 85.9972 45.5451 84.4384 50.53C82.8803 55.3869 81.1266 61.011 79.1774 67.4022C76.5795 75.7104 73.668 82.6092 70.443 88.0986C67.2185 93.4599 63.2961 97.4741 58.6759 100.141C54.0563 102.68 48.2905 103.934 41.3786 103.902C31.7787 103.858 23.725 101.582 17.2175 97.0719C10.5826 92.4336 5.61863 86.2669 2.32569 78.5718C-1.09525 70.8762 -2.785 62.4844 -2.74356 53.3965C-2.71437 46.9965 -1.91837 40.8561 -0.355536 34.9752C1.20789 28.9662 3.15326 23.407 5.48058 18.2976C7.80849 13.0602 10.1338 8.39871 12.4564 4.31326L38.5051 18.2562Z" fill="#569BE0" fill-opacity="0.13"/>
</svg>
