<svg width="94" height="94" viewBox="0 0 94 94" fill="none" xmlns="http://www.w3.org/2000/svg">
<rect width="94" height="94" rx="47" fill="#569BE0"/>
<g clip-path="url(#clip0_34_25)">
<path d="M47.0002 71C46.8448 71 46.6893 70.976 46.5395 70.928C41.5041 69.315 37.2172 66.2212 33.7975 61.7327C31.1052 58.1989 28.9495 53.8006 27.3906 48.6602C24.7609 39.9898 24.7307 32.2658 24.7307 31.9413C24.7307 31.1636 25.3215 30.5129 26.0957 30.4381C26.2123 30.4268 37.9408 29.2228 46.1128 23.2882C46.642 22.9037 47.3585 22.9041 47.8877 23.2883C56.0575 29.2228 67.7875 30.4268 67.905 30.4383C68.6786 30.5138 69.2692 31.1642 69.2692 31.9413C69.2692 32.2658 69.239 39.9898 66.6094 48.6603C65.0504 53.8008 62.8948 58.199 60.2026 61.7329C56.7831 66.2214 52.4961 69.3152 47.4608 70.9281C47.311 70.976 47.1556 71 47.0002 71ZM27.7943 33.2662C27.9198 35.8007 28.4077 41.638 30.3017 47.8526C33.5341 58.4577 39.1512 65.1993 47 67.8988C54.8672 65.1933 60.4907 58.4287 63.7191 47.7837C65.6002 41.581 66.0829 35.7882 66.2065 33.2663C62.8233 32.7726 54.0594 31.102 46.9999 26.3522C39.9398 31.1015 31.1777 32.7725 27.7943 33.2662Z" fill="white"/>
<path d="M46.1927 54.354C45.8345 54.354 45.486 54.2265 45.2113 53.9916L39.7502 49.3214C39.1164 48.7794 39.042 47.8262 39.584 47.1922C40.1258 46.5583 41.0791 46.4837 41.7131 47.026L45.9601 50.658L54.378 39.6163C54.8836 38.953 55.8311 38.825 56.4945 39.3308C57.1579 39.8364 57.2855 40.784 56.7799 41.4473L47.3937 53.7593C47.142 54.0896 46.7655 54.3016 46.3525 54.3455C46.2992 54.3511 46.2459 54.354 46.1927 54.354Z" fill="white"/>
</g>
<defs>
<clipPath id="clip0_34_25">
<rect width="48" height="48" fill="white" transform="translate(23 23)"/>
</clipPath>
</defs>
</svg>
