<svg width="128" height="128" viewBox="0 0 128 128" fill="none" xmlns="http://www.w3.org/2000/svg">
<rect width="128" height="128" fill="white"/>
<g opacity="0.1">
<path d="M128 53.0679C128 44.8078 123.655 37.1226 115.766 31.4283C108.236 25.9933 98.2862 23 87.7487 23C77.2107 23.0005 67.2602 25.9933 59.7306 31.4283C57.6672 32.9179 55.8523 34.5461 54.2883 36.2827C49.8536 35.0582 45.1188 34.4089 40.2518 34.4089C29.7143 34.4089 19.7643 37.4022 12.2342 42.8373C4.34474 48.5315 0 56.2158 0 64.4758C0 72.7014 4.41136 80.4576 12.2007 86.0896L8.54358 100.141C8.17398 101.56 8.69044 103.062 9.85322 103.954C10.5039 104.453 11.2864 104.707 12.0737 104.707C12.6923 104.707 13.3138 104.55 13.875 104.231L32.0258 93.9178C34.7224 94.3331 37.4832 94.5432 40.2513 94.5432C50.7893 94.5432 60.7397 91.5505 68.2694 86.1159C70.3313 84.6278 72.1453 83.0015 73.7054 81.2654C78.142 82.4885 82.8802 83.1348 87.7482 83.1348C90.5139 83.1348 93.2742 82.9247 95.9737 82.5094L114.125 92.8227C114.687 93.1417 115.308 93.2987 115.927 93.2987C116.713 93.2987 117.497 93.0449 118.147 92.545C119.311 91.6531 119.826 90.1508 119.456 88.7323L115.799 74.6812C123.589 69.0487 128 61.2924 128 53.0679ZM109.693 69.9984C108.337 70.8412 107.686 72.4694 108.089 74.0154L110.223 82.2147L98.453 75.5273C97.9005 75.2132 97.279 75.0508 96.6512 75.0508C96.4357 75.0508 96.2188 75.0697 96.0044 75.1086C93.3136 75.593 90.5358 75.8391 87.7487 75.8391C69.5756 75.8391 54.7911 65.6235 54.7911 53.0674C54.7911 40.5107 69.5756 30.2947 87.7487 30.2942C105.921 30.2942 120.706 40.5103 120.706 53.0674C120.705 59.4785 116.691 65.6498 109.693 69.9984Z" fill="#777777"/>
<path d="M69.7463 49.7339C67.4081 49.7339 65.5056 51.6364 65.5056 53.9746C65.5056 56.3128 67.4081 58.2152 69.7463 58.2152C72.0855 58.2152 73.9879 56.3128 73.9879 53.9746C73.9879 51.6364 72.0855 49.7339 69.7463 49.7339Z" fill="#777777"/>
<path d="M81.7481 49.7339C79.4094 49.7339 77.507 51.6364 77.507 53.9746C77.507 56.3128 79.4094 58.2152 81.7481 58.2152C84.0868 58.2152 85.9893 56.3128 85.9893 53.9746C85.9888 51.6364 84.0863 49.7339 81.7481 49.7339Z" fill="#777777"/>
<path d="M93.7488 49.7339C91.4102 49.7339 89.5072 51.6364 89.5072 53.9746C89.5072 56.3132 91.4097 58.2157 93.7488 58.2157C96.087 58.2157 97.989 56.3132 97.989 53.9746C97.989 51.6364 96.087 49.7339 93.7488 49.7339Z" fill="#777777"/>
<path d="M105.75 49.7339C103.411 49.7339 101.509 51.6364 101.509 53.9746C101.509 56.3132 103.411 58.2157 105.75 58.2157C108.088 58.2157 109.99 56.3132 109.99 53.9746C109.99 51.6364 108.088 49.7339 105.75 49.7339Z" fill="#777777"/>
</g>
</svg>
