<svg width="60" height="60" viewBox="0 0 60 60" fill="none" xmlns="http://www.w3.org/2000/svg">
<rect width="59.0533" height="60" rx="8" fill="url(#paint0_linear_37_221)"/>
<path d="M37.6736 11.0254C26.1752 5.84483 13.1967 11.0528 9.14853 21.5255C9.10879 21.5528 9.09418 21.6044 9.1054 21.6488C7.80953 25.0724 7.45901 29.0489 8.42628 33.4088C10.8981 44.5502 21.3141 46.1203 30.8617 44.3468C30.7682 49.0835 36.5091 51.7638 40.5015 51.7416C40.7586 51.7401 40.8876 51.4162 40.7098 51.2306C39.0684 49.5178 38.0585 47.4759 37.6991 45.1303C45.354 45.1364 49.9928 37.9796 50.5177 30.7273C51.1903 21.4373 45.8229 14.6969 37.6736 11.0254ZM37.033 44.4473C36.6103 44.428 36.6128 45.0912 37.033 45.1138C37.0631 45.1154 37.0923 45.1145 37.1224 45.116C37.4583 47.3995 38.3463 49.3911 39.8213 51.1198C38.4734 51.0347 37.0602 50.6744 35.774 50.0677C36.0001 50.157 36.3718 50.1294 36.6039 50.1488C36.9729 50.1798 37.3388 50.1993 37.7092 50.2031C37.8014 50.204 37.8281 50.0485 37.7317 50.0346C37.4348 49.9913 37.1401 49.9542 36.8407 49.9306C36.6828 49.9183 36.5249 49.9078 36.3669 49.8966C36.3118 49.8926 35.9638 49.8973 35.7963 49.9C35.8175 49.8796 35.8294 49.849 35.81 49.8202L35.7872 49.786C35.7697 49.7599 35.741 49.7461 35.7104 49.7541C35.5115 49.8057 35.5874 49.9631 35.7145 50.0395C34.9015 49.6498 34.1443 49.1572 33.4887 48.57C34.3879 48.6055 35.2841 48.6763 36.179 48.7807C36.3097 48.796 36.341 48.568 36.2104 48.5461C35.2137 48.3783 34.2137 48.3114 33.2056 48.3057C32.7973 47.9026 32.439 47.457 32.1403 46.9727C32.8946 47.1056 33.6486 47.2546 34.4091 47.3422C34.518 47.3547 34.543 47.1684 34.4352 47.1471C33.6555 46.9932 32.8624 46.9063 32.0754 46.7976C32.0624 46.7958 32.0535 46.8029 32.0425 46.8061C31.7727 46.3381 31.567 45.8308 31.423 45.2921C32.3511 45.3481 33.2886 45.3457 34.2081 45.1987C34.3307 45.179 34.3031 44.9668 34.1786 44.9771C33.2396 45.0551 32.3146 45.1187 31.3735 45.0834C31.2933 44.7348 31.232 44.3771 31.2133 43.9999C31.2021 43.7742 30.8993 43.7758 30.8679 43.9878C25.3706 44.7877 19.2397 45.2356 14.4478 41.8823C16.6611 42.1781 18.8774 42.4571 21.0963 42.7017C21.2416 42.7177 21.2371 42.4917 21.0963 42.4729C18.7662 42.1604 16.4303 41.8837 14.0934 41.6275C13.4004 41.1055 12.7849 40.5164 12.2321 39.8798C13.5629 40.1803 14.909 40.4179 16.2698 40.5157C16.4123 40.526 16.4063 40.31 16.2698 40.2935C14.8379 40.1195 13.4184 39.9205 12.0074 39.6193C11.4455 38.9352 10.9694 38.1898 10.552 37.41C11.672 37.4974 12.7922 37.5876 13.9141 37.6408C14.0603 37.6477 14.0569 37.4241 13.9141 37.412C12.7526 37.3124 11.5883 37.2525 10.4246 37.1882C10.0445 36.4471 9.73196 35.6689 9.47054 34.8696C10.6673 35.0754 11.8718 35.1669 13.0893 35.1321C13.2402 35.1278 13.2411 34.8938 13.0893 34.8931C11.8465 34.8868 10.6169 34.7816 9.38892 34.6038C9.18702 33.9505 9.03484 33.2803 8.90475 32.6045C11.3983 32.6475 13.8947 32.7175 16.3877 32.6283C16.5328 32.623 16.5326 32.4059 16.3877 32.3994C13.8808 32.2853 11.3685 32.3324 8.86002 32.3509C8.72887 31.6183 8.63834 30.878 8.5831 30.1362C8.62907 30.2003 8.65188 30.2171 8.74686 30.2101C8.79159 30.2068 8.82189 30.1762 8.82527 30.1304C8.82581 30.1237 8.82634 30.1168 8.82688 30.1101C9.42795 30.1945 11.7838 30.2423 12.029 30.2247C12.1804 30.2139 12.1842 29.9819 12.029 29.9823C11.2385 29.9845 10.444 29.9713 9.65497 29.9216C9.3278 29.901 8.7948 29.7006 8.57615 30.018C8.53837 29.469 8.51699 28.9193 8.52429 28.3716C8.52982 27.9593 8.56332 27.5558 8.59254 27.1507C9.93065 27.2949 11.2732 27.4183 12.6165 27.489C12.7574 27.4964 12.7508 27.2858 12.6165 27.2701C11.2843 27.1149 9.94419 27.011 8.60502 26.9284C8.67362 26.1033 8.80656 25.3014 8.96979 24.5122C11.7959 24.6165 14.6205 24.7162 17.4486 24.7439C17.6412 24.7458 17.6398 24.4488 17.4486 24.441C14.6416 24.3262 11.8344 24.283 9.02557 24.2442C9.21001 23.4112 9.45485 22.6048 9.73926 21.8195C11.1214 22.0721 12.5083 22.1454 13.9145 21.9817C14.0727 21.9633 14.077 21.7102 13.9145 21.7259C12.534 21.8602 11.1741 21.8233 9.81286 21.6035C10.2074 20.5537 10.696 19.5563 11.2575 18.6095C12.8505 18.7654 14.4391 18.9526 16.0354 19.0698C16.1668 19.0794 16.1621 18.8788 16.0354 18.8645C14.4783 18.6876 12.916 18.5775 11.3554 18.4397C11.981 17.4095 12.7068 16.4513 13.5134 15.5678C15.0979 15.7354 16.6818 15.9129 18.2719 16.0183C18.4531 16.0302 18.4461 15.7554 18.2719 15.7354C16.7568 15.5631 15.2357 15.4568 13.7153 15.3447C16.4918 12.4013 20.2378 10.3731 24.5898 9.71275C33.2252 8.40226 44.0785 13.0314 48.2893 21.0812C52.8825 29.8613 48.2817 44.9606 37.033 44.4473Z" fill="white"/>
<path d="M29.2224 15.2525C22.0766 14.1508 15.3283 23.8498 22.4683 28.6326C22.5271 28.6721 22.5864 28.6553 22.6376 28.6227C22.7088 28.6995 22.8282 28.7261 22.9273 28.6265C23.4708 28.0813 24.0102 27.5322 24.5805 27.0156C24.8834 26.7411 25.5745 26.3597 25.7039 25.9374C25.9093 25.2672 25.0914 24.3678 24.9488 23.7769C24.1307 20.3873 28.3156 19.9189 29.8837 22.2339C30.9659 23.8316 31.3819 27.7062 28.6386 28.0359C28.5556 28.0458 28.4938 28.0862 28.449 28.1393C28.4212 27.8358 27.9349 27.8599 27.8947 28.1959C27.5685 30.9138 27.477 33.649 27.5486 36.3846C27.5536 36.5756 27.7284 36.7159 27.913 36.6667C29.3559 36.283 30.7368 36.1945 32.211 36.3777C32.3532 36.3955 32.5136 36.2296 32.4974 36.0868C32.2809 34.1683 32.2369 32.2216 31.9767 30.3101C32.0184 30.3273 32.0647 30.3348 32.1166 30.3197C39.9529 28.0268 35.811 16.2682 29.2224 15.2525ZM31.9366 29.8859C31.8951 29.9077 31.8696 29.9388 31.8511 29.9727C31.7689 29.9578 31.6654 30.0118 31.6557 30.1113C31.5677 31.0108 31.5948 31.9031 31.6422 32.8051C31.6679 33.2927 32.0863 35.1357 31.8582 35.4913C31.575 35.9329 30.5065 35.6691 30.0079 35.7022C29.3673 35.7449 28.7429 35.8679 28.1215 36.0196C28.0716 33.5121 28.1905 31.025 28.426 28.5291C28.4704 28.5865 28.5396 28.6231 28.6388 28.6113C32.8116 28.1154 31.5488 21.4414 28.3564 20.3071C26.9135 19.7943 25.204 20.31 24.5051 21.7588C23.9898 22.827 24.4082 23.5717 24.6592 24.6291C24.8765 25.5434 24.794 25.8775 24.207 26.6356C23.7472 27.2293 23.1292 27.7332 22.6406 28.3122C16.2591 23.087 22.8493 14.1003 29.9183 16.0407C36.1049 17.7392 37.9414 26.7574 31.9366 29.8859Z" fill="white"/>
<path d="M32.2768 37.4711C31.932 37.2312 31.1948 37.3909 30.8261 37.3978C30.011 37.4132 29.1743 37.3799 28.3699 37.5229C28.2452 37.5452 28.2448 37.7575 28.3699 37.7794C28.8415 37.862 29.3103 37.8649 29.7882 37.8776C30.3293 37.8917 31.186 37.7342 31.6907 37.9123C32.1763 38.0838 31.9514 38.8549 31.9306 39.3396C31.9078 39.8685 31.8851 40.3973 31.8611 40.9262C30.9341 40.7781 30.0035 40.7656 29.0726 40.9326C28.9179 40.9603 28.4491 41.1697 28.3035 41.1116C27.8742 40.9403 27.9875 40.361 27.9873 40.022C27.987 39.5835 27.7805 38.2784 28.132 37.9491C28.4072 37.6913 28.0107 37.3214 27.7315 37.5421C27.2268 37.9409 27.3998 38.7671 27.3982 39.3378C27.3966 39.9159 27.1511 41.0368 27.5238 41.5233C27.7958 41.878 28.2523 41.7437 28.6153 41.6573C29.7713 41.3818 30.8849 41.3329 32.0573 41.5431C32.2433 41.5764 32.4144 41.4647 32.4208 41.2617C32.45 40.33 32.499 39.3981 32.519 38.466C32.5257 38.1349 32.5974 37.6942 32.2768 37.4711Z" fill="white"/>
<path d="M21.2177 12.9748C19.7214 13.0026 18.2254 12.9659 16.7358 12.8154C16.6218 12.8038 16.5938 13.0046 16.7085 13.0204C18.2108 13.2273 19.7027 13.3175 21.2179 13.2373C21.3827 13.2286 21.3851 12.9717 21.2177 12.9748Z" fill="white"/>
<path d="M26.7547 11.1581C24.6659 11.1594 22.5831 11.0855 20.5072 10.8393C20.3456 10.8201 20.3059 11.1064 20.4685 11.1303C22.559 11.4381 24.6431 11.5862 26.7547 11.4714C26.9513 11.4605 26.9545 11.1581 26.7547 11.1581Z" fill="white"/>
<defs>
<linearGradient id="paint0_linear_37_221" x1="53.3384" y1="9.91935" x2="97.5097" y2="90.623" gradientUnits="userSpaceOnUse">
<stop stop-color="#569BE0"/>
<stop offset="1" stop-color="#346CA4"/>
</linearGradient>
</defs>
</svg>
