<svg width="128" height="128" viewBox="0 0 128 128" fill="none" xmlns="http://www.w3.org/2000/svg">
<g opacity="0.1">
<rect width="128" height="128" fill="white"/>
<path d="M64.3333 58.6667C68.5527 58.6667 72.6772 57.4155 76.1855 55.0714C79.6937 52.7272 82.4281 49.3954 84.0428 45.4973C85.6574 41.5991 86.0799 37.3097 85.2568 33.1714C84.4336 29.0332 82.4018 25.2319 79.4183 22.2484C76.4348 19.2649 72.6335 17.2331 68.4953 16.4099C64.357 15.5868 60.0676 16.0092 56.1694 17.6239C52.2713 19.2386 48.9395 21.9729 46.5953 25.4812C44.2512 28.9894 43 33.114 43 37.3333C43 42.9913 45.2476 48.4175 49.2484 52.4183C53.2492 56.4191 58.6754 58.6667 64.3333 58.6667Z" fill="#777777"/>
<path d="M96.3333 112C97.7478 112 99.1044 111.438 100.105 110.438C101.105 109.438 101.667 108.081 101.667 106.667C101.667 96.7654 97.7333 87.2695 90.732 80.2682C83.7306 73.2668 74.2347 69.3335 64.3333 69.3335C54.4319 69.3335 44.936 73.2668 37.9347 80.2682C30.9333 87.2695 27 96.7654 27 106.667C27 108.081 27.5619 109.438 28.5621 110.438C29.5623 111.438 30.9188 112 32.3333 112H96.3333Z" fill="#777777"/>
</g>
</svg>
