<svg width="60" height="62" viewBox="0 0 60 62" fill="none" xmlns="http://www.w3.org/2000/svg">
<rect width="60" height="61.2121" rx="8" fill="url(#paint0_linear_29_30838)"/>
<g clip-path="url(#clip0_29_30838)">
<path d="M50.9825 15.1047C50.9743 15.0622 50.9674 15.0215 50.9524 14.9809C50.9466 14.9653 50.9478 14.949 50.9409 14.9336C50.9247 14.8966 50.8964 14.8702 50.8753 14.837C50.8528 14.8015 50.8338 14.766 50.8053 14.7343C50.7591 14.6827 50.7049 14.6432 50.648 14.6059C50.6271 14.5922 50.6136 14.5713 50.5912 14.5595C50.5863 14.5569 50.5809 14.5575 50.5761 14.5551C50.4886 14.5111 50.3949 14.481 50.2964 14.472C50.2741 14.47 50.2532 14.478 50.2309 14.4778C50.1605 14.4774 50.0895 14.4772 50.019 14.4969L49.9965 14.5031C49.9957 14.5033 49.9953 14.5035 49.9945 14.5037L8.5753 25.8763C8.24157 25.968 8.00798 26.268 8.00015 26.614C7.99333 26.9599 8.21388 27.2692 8.5438 27.3746L23.945 32.2992L23.9512 32.3085L21.8335 41.9381C21.767 42.2398 21.8838 42.5514 22.1321 42.7346C22.2695 42.8362 22.4329 42.8882 22.597 42.8882C22.7291 42.8882 22.8621 42.8544 22.9819 42.7874L28.8579 39.4682L33.4645 46.1895C33.6112 46.4027 33.8524 46.5293 34.1097 46.5293C34.1241 46.5293 34.1394 46.5285 34.1546 46.5277C34.428 46.5124 34.6732 46.3543 34.8006 46.1123L50.9171 15.6157C50.9273 15.5962 50.9265 15.5749 50.9349 15.5551C50.9588 15.4995 50.9751 15.4435 50.9857 15.3837C50.9929 15.344 50.9991 15.3064 50.9999 15.2669C51.0011 15.2121 50.9929 15.1593 50.9825 15.1047ZM11.5283 26.6872L45.4116 17.3831L24.3283 30.7805L11.5283 26.6872ZM23.7373 40.5641L25.1635 34.0771L27.9701 38.1722L23.7373 40.5641ZM34.0234 44.2371L25.6241 31.982L25.663 31.8044C25.6644 31.7976 25.662 31.7913 25.6634 31.7845L48.1583 17.4904L34.0234 44.2371Z" fill="white"/>
</g>
<defs>
<linearGradient id="paint0_linear_29_30838" x1="54.1936" y1="10.1197" x2="99.3565" y2="92.2979" gradientUnits="userSpaceOnUse">
<stop stop-color="#569BE0"/>
<stop offset="1" stop-color="#346CA4"/>
</linearGradient>
<clipPath id="clip0_29_30838">
<rect width="43" height="43" fill="white" transform="translate(8 9)"/>
</clipPath>
</defs>
</svg>
