<svg width="128" height="128" viewBox="0 0 128 128" fill="none" xmlns="http://www.w3.org/2000/svg">
<g opacity="0.1" clip-path="url(#clip0_29_30849)">
<rect width="128" height="128" transform="translate(3)" fill="white"/>
<path d="M123.953 22.6786C123.932 22.5658 123.913 22.4577 123.874 22.3503C123.858 22.3088 123.861 22.2657 123.843 22.2247C123.8 22.1268 123.725 22.0565 123.669 21.9687C123.61 21.8746 123.559 21.7804 123.484 21.6963C123.361 21.5596 123.218 21.4547 123.066 21.3558C123.011 21.3196 122.976 21.2642 122.916 21.2329C122.903 21.2259 122.889 21.2275 122.876 21.2211C122.644 21.1046 122.396 21.0248 122.134 21.0009C122.075 20.9955 122.02 21.0168 121.961 21.0163C121.774 21.0152 121.586 21.0147 121.399 21.0668L121.34 21.0833C121.337 21.0839 121.336 21.0844 121.334 21.0849L11.5252 51.239C10.6404 51.4822 10.0212 52.2777 10.0004 53.195C9.98232 54.1123 10.567 54.9323 11.4417 55.2117L52.2728 68.2694L52.2893 68.2938L46.6747 93.8266C46.4986 94.6264 46.8082 95.4527 47.4664 95.9385C47.8308 96.2078 48.2639 96.3456 48.6991 96.3456C49.0492 96.3456 49.4019 96.2562 49.7195 96.0785L65.2975 87.2776L77.5104 105.099C77.8993 105.664 78.5388 106 79.2209 106C79.2592 106 79.2997 105.998 79.3401 105.996C80.0647 105.955 80.7149 105.536 81.0527 104.894L123.78 24.0333C123.807 23.9817 123.805 23.9253 123.827 23.8726C123.891 23.7252 123.934 23.5767 123.962 23.4182C123.981 23.3128 123.998 23.2133 124 23.1085C124.003 22.9632 123.981 22.8233 123.953 22.6786ZM19.3541 53.3892L109.184 28.7195L53.289 64.2424L19.3541 53.3892ZM51.7221 90.1833L55.5033 72.9832L62.9438 83.8413L51.7221 90.1833ZM78.9921 99.9224L56.7243 67.4281L56.8275 66.9572C56.8312 66.9391 56.8249 66.9226 56.8286 66.9045L116.466 29.0042L78.9921 99.9224Z" fill="#777777"/>
</g>
<defs>
<clipPath id="clip0_29_30849">
<rect width="128" height="128" fill="white"/>
</clipPath>
</defs>
</svg>
